<svg xmlns="http://www.w3.org/2000/svg" xmlns:xlink="http://www.w3.org/1999/xlink" xmlns:lucid="lucid" width="1180" height="360"><g transform="translate(-80 -200)" lucid:page-tab-id="0_0"><path d="M0 0h1870.87v1322.83H0z" fill="#fff"/><path d="M244 220c19.88 0 36 17.9 36 40s-16.12 40-36 40H136c-19.88 0-36-17.9-36-40s16.12-40 36-40z" stroke="#5e5e5e" stroke-width="3" fill="#c7e8ac"/><use xlink:href="#a" transform="matrix(1,0,0,1,105,225) translate(9.17166666666669 26.9375)"/><use xlink:href="#b" transform="matrix(1,0,0,1,105,225) translate(107.94944444444445 26.9375)"/><use xlink:href="#c" transform="matrix(1,0,0,1,105,225) translate(59.505 50.9375)"/><path d="M244 340c19.88 0 36 17.9 36 40s-16.12 40-36 40H136c-19.88 0-36-17.9-36-40s16.12-40 36-40z" stroke="#5e5e5e" stroke-width="3" fill="#c7e8ac"/><use xlink:href="#d" transform="matrix(1,0,0,1,105,345) translate(28.027777777777793 40.0625)"/><use xlink:href="#e" transform="matrix(1,0,0,1,105,345) translate(86.47222222222223 40.0625)"/><path d="M1204 220c19.88 0 36 17.9 36 40s-16.12 40-36 40h-108c-19.88 0-36-17.9-36-40s16.12-40 36-40z" stroke="#5e5e5e" stroke-width="3" fill="#c1e4f7"/><use xlink:href="#f" transform="matrix(1,0,0,1,1065,225) translate(12.972222222222229 40.0625)"/><use xlink:href="#c" transform="matrix(1,0,0,1,1065,225) translate(106.02777777777777 40.0625)"/><path d="M604 280c19.88 0 36 17.9 36 40s-16.12 40-36 40H496c-19.88 0-36-17.9-36-40s16.12-40 36-40z" stroke="#5e5e5e" stroke-width="3" fill="#ffeca9"/><use xlink:href="#d" transform="matrix(1,0,0,1,465,285) translate(28.03277777777779 26.9375)"/><use xlink:href="#g" transform="matrix(1,0,0,1,465,285) translate(86.47722222222222 26.9375)"/><use xlink:href="#h" transform="matrix(1,0,0,1,465,285) translate(39.00500000000001 50.9375)"/><use xlink:href="#c" transform="matrix(1,0,0,1,465,285) translate(80.005 50.9375)"/><path d="M604 400c19.88 0 36 17.9 36 40s-16.12 40-36 40H496c-19.88 0-36-17.9-36-40s16.12-40 36-40z" stroke="#5e5e5e" stroke-width="3" fill="#ffeca9"/><use xlink:href="#d" transform="matrix(1,0,0,1,465,405) translate(28.03277777777779 26.9375)"/><use xlink:href="#g" transform="matrix(1,0,0,1,465,405) translate(86.47722222222222 26.9375)"/><use xlink:href="#i" transform="matrix(1,0,0,1,465,405) translate(25.116111111111124 50.9375)"/><use xlink:href="#c" transform="matrix(1,0,0,1,465,405) translate(93.89388888888888 50.9375)"/><path d="M282.5 260H1040" stroke="#5e5e5e" stroke-width="2" fill="none"/><path d="M282.53 261h-1.1l.07-.98-.03-1.02h1.06z" fill="#5e5e5e"/><path d="M1055.26 260l-14.26 4.64v-9.28z" stroke="#5e5e5e" stroke-width="2" fill="#5e5e5e"/><use xlink:href="#j" transform="matrix(1,0,0,1,319.793490460157,234.66666666666669) translate(0 14.222222222222223)"/><use xlink:href="#k" transform="matrix(1,0,0,1,319.793490460157,234.66666666666669) translate(50.27160493827161 14.222222222222223)"/><path d="M282.5 380H294c3.3 0 6 2.7 6 6v48c0 3.3 2.7 6 6 6h134" stroke="#5e5e5e" stroke-width="2" fill="none"/><path d="M282.53 381h-1.1l.07-.98-.03-1.02h1.06z" fill="#5e5e5e"/><path d="M455.26 440L441 444.64v-9.28z" stroke="#5e5e5e" stroke-width="2" fill="#5e5e5e"/><use xlink:href="#l" transform="matrix(1,0,0,1,322.13916947250266,414.66666666666663) translate(0 14.222222222222223)"/><use xlink:href="#k" transform="matrix(1,0,0,1,322.13916947250266,414.66666666666663) translate(56.24691358024692 14.222222222222223)"/><path d="M282.5 260H294c3.3 0 6 2.7 6 6v48c0 3.3 2.7 6 6 6h134" stroke="#5e5e5e" stroke-width="2" fill="none"/><path d="M282.53 261h-1.1l.07-.98-.03-1.02h1.06z" fill="#5e5e5e"/><path d="M455.26 320L441 324.64v-9.28z" stroke="#5e5e5e" stroke-width="2" fill="#5e5e5e"/><path d="M282.5 380H294c3.3 0 6-2.7 6-6v-48c0-3.3 2.7-6 6-6h134" stroke="#5e5e5e" stroke-width="2" fill="none"/><path d="M282.53 381h-1.1l.07-.98-.03-1.02h1.06z" fill="#5e5e5e"/><path d="M455.26 320L441 324.64v-9.28z" stroke="#5e5e5e" stroke-width="2" fill="#5e5e5e"/><use xlink:href="#j" transform="matrix(1,0,0,1,318.04040404040387,294.66666666666663) translate(0 14.222222222222223)"/><use xlink:href="#m" transform="matrix(1,0,0,1,318.04040404040387,294.66666666666663) translate(50.27160493827161 14.222222222222223)"/><use xlink:href="#n" transform="matrix(1,0,0,1,318.04040404040387,294.66666666666663) translate(65.58024691358025 14.222222222222223)"/><path d="M864 340c19.88 0 36 17.9 36 40s-16.12 40-36 40H756c-19.88 0-36-17.9-36-40s16.12-40 36-40z" stroke="#5e5e5e" stroke-width="3" fill="#ffeca9"/><use xlink:href="#d" transform="matrix(1,0,0,1,725,345) translate(28.027777777777793 40.0625)"/><use xlink:href="#e" transform="matrix(1,0,0,1,725,345) translate(86.47222222222223 40.0625)"/><path d="M244 460c19.88 0 36 17.9 36 40s-16.12 40-36 40H136c-19.88 0-36-17.9-36-40s16.12-40 36-40z" stroke="#5e5e5e" stroke-width="3" fill="#c7e8ac"/><use xlink:href="#o" transform="matrix(1,0,0,1,105,465) translate(11.7777777777778 40.0625)"/><use xlink:href="#p" transform="matrix(1,0,0,1,105,465) translate(106.05555555555556 40.0625)"/><path d="M1204 340c19.88 0 36 17.9 36 40s-16.12 40-36 40h-108c-19.88 0-36-17.9-36-40s16.12-40 36-40z" stroke="#5e5e5e" stroke-width="3" fill="#c1e4f7"/><use xlink:href="#d" transform="matrix(1,0,0,1,1065,345) translate(28.03277777777779 26.9375)"/><use xlink:href="#g" transform="matrix(1,0,0,1,1065,345) translate(86.47722222222222 26.9375)"/><use xlink:href="#i" transform="matrix(1,0,0,1,1065,345) translate(24.53277777777779 50.9375)"/><use xlink:href="#p" transform="matrix(1,0,0,1,1065,345) translate(93.31055555555555 50.9375)"/><path d="M1204 460c19.88 0 36 17.9 36 40s-16.12 40-36 40h-108c-19.88 0-36-17.9-36-40s16.12-40 36-40z" stroke="#5e5e5e" stroke-width="3" fill="#c1e4f7"/><g><use xlink:href="#d" transform="matrix(1,0,0,1,1065,465) translate(28.03277777777779 26.9375)"/><use xlink:href="#g" transform="matrix(1,0,0,1,1065,465) translate(86.47722222222222 26.9375)"/><use xlink:href="#h" transform="matrix(1,0,0,1,1065,465) translate(38.421666666666674 50.9375)"/><use xlink:href="#p" transform="matrix(1,0,0,1,1065,465) translate(79.42166666666667 50.9375)"/></g><path d="M642.5 320H654c3.3 0 6 2.7 6 6v48c0 3.3 2.7 6 6 6h34" stroke="#5e5e5e" stroke-width="2" fill="none"/><path d="M642.53 321h-1.1l.07-.98-.03-1.02h1.06z" fill="#5e5e5e"/><path d="M715.26 380L701 384.64v-9.28z" stroke="#5e5e5e" stroke-width="2" fill="#5e5e5e"/><path d="M642.5 440H654c3.3 0 6-2.7 6-6v-48c0-3.3 2.7-6 6-6h34" stroke="#5e5e5e" stroke-width="2" fill="none"/><path d="M642.53 441h-1.1l.07-.98-.03-1.02h1.06z" fill="#5e5e5e"/><path d="M715.26 380L701 384.64v-9.28z" stroke="#5e5e5e" stroke-width="2" fill="#5e5e5e"/><path d="M282.5 500H1040" stroke="#5e5e5e" stroke-width="2" fill="none"/><path d="M282.53 501h-1.1l.07-.98-.03-1.02h1.06z" fill="#5e5e5e"/><path d="M1055.26 500l-14.26 4.64v-9.28z" stroke="#5e5e5e" stroke-width="2" fill="#5e5e5e"/><path d="M902.5 380H924c3.3 0 6 2.7 6 6v108c0 3.3 2.7 6 6 6h104" stroke="#5e5e5e" stroke-width="2" fill="none"/><path d="M902.53 381h-1.1l.07-.98-.03-1.02h1.06z" fill="#5e5e5e"/><path d="M1055.26 500l-14.26 4.64v-9.28z" stroke="#5e5e5e" stroke-width="2" fill="#5e5e5e"/><g><use xlink:href="#q" transform="matrix(1,0,0,1,953.1268237934903,474.66666666666663) translate(0 14.222222222222223)"/><use xlink:href="#r" transform="matrix(1,0,0,1,953.1268237934903,474.66666666666663) translate(37.48148148148149 14.222222222222223)"/></g><path d="M902.5 380H1040" stroke="#5e5e5e" stroke-width="2" fill="none"/><path d="M902.53 381h-1.1l.07-.98-.03-1.02h1.06z" fill="#5e5e5e"/><path d="M1055.26 380l-14.26 4.64v-9.28z" stroke="#5e5e5e" stroke-width="2" fill="#5e5e5e"/><g><use xlink:href="#s" transform="matrix(1,0,0,1,950.9292929292927,354.66666666666663) translate(0 14.222222222222223)"/><use xlink:href="#r" transform="matrix(1,0,0,1,950.9292929292927,354.66666666666663) translate(28.543209876543212 14.222222222222223)"/></g><defs><path fill="#333" d="M140-251c81 0 123 46 123 126C263-46 219 4 140 4 59 4 17-45 17-125s42-126 123-126zm0 227c63 0 89-41 89-101s-29-99-89-99c-61 0-89 39-89 99S79-25 140-24" id="t"/><path fill="#333" d="M115-194c55 1 70 41 70 98S169 2 115 4C84 4 66-9 55-30l1 105H24l-1-265h31l2 30c10-21 28-34 59-34zm-8 174c40 0 45-34 45-75s-6-73-45-74c-42 0-51 32-51 76 0 43 10 73 51 73" id="u"/><path fill="#333" d="M100-194c63 0 86 42 84 106H49c0 40 14 67 53 68 26 1 43-12 49-29l28 8c-11 28-37 45-77 45C44 4 14-33 15-96c1-61 26-98 85-98zm52 81c6-60-76-77-97-28-3 7-6 17-6 28h103" id="v"/><path fill="#333" d="M117-194c89-4 53 116 60 194h-32v-121c0-31-8-49-39-48C34-167 62-67 57 0H25l-1-190h30c1 10-1 24 2 32 11-22 29-35 61-36" id="w"/><path fill="#333" d="M240 0l2-218c-23 76-54 145-80 218h-23L58-218 59 0H30v-248h44l77 211c21-75 51-140 76-211h43V0h-30" id="x"/><path fill="#333" d="M233-177c-1 41-23 64-60 70L243 0h-38l-65-103H63V0H30v-248c88 3 205-21 203 71zM63-129c60-2 137 13 137-47 0-61-80-42-137-45v92" id="y"/><path fill="#333" d="M185-189c-5-48-123-54-124 2 14 75 158 14 163 119 3 78-121 87-175 55-17-10-28-26-33-46l33-7c5 56 141 63 141-1 0-78-155-14-162-118-5-82 145-84 179-34 5 7 8 16 11 25" id="z"/><g id="a"><use transform="matrix(0.055555555555555546,0,0,0.055555555555555546,0,0)" xlink:href="#t"/><use transform="matrix(0.055555555555555546,0,0,0.055555555555555546,15.555555555555554,0)" xlink:href="#u"/><use transform="matrix(0.055555555555555546,0,0,0.055555555555555546,26.666666666666664,0)" xlink:href="#v"/><use transform="matrix(0.055555555555555546,0,0,0.055555555555555546,37.77777777777777,0)" xlink:href="#w"/><use transform="matrix(0.055555555555555546,0,0,0.055555555555555546,48.88888888888888,0)" xlink:href="#x"/><use transform="matrix(0.055555555555555546,0,0,0.055555555555555546,65.49999999999999,0)" xlink:href="#y"/><use transform="matrix(0.055555555555555546,0,0,0.055555555555555546,79.88888888888887,0)" xlink:href="#z"/></g><path fill="#333" d="M30-248c87 1 191-15 191 75 0 78-77 80-158 76V0H30v-248zm33 125c57 0 124 11 124-50 0-59-68-47-124-48v98" id="A"/><path fill="#333" d="M205 0l-28-72H64L36 0H1l101-248h38L239 0h-34zm-38-99l-47-123c-12 45-31 82-46 123h93" id="B"/><path fill="#333" d="M212-179c-10-28-35-45-73-45-59 0-87 40-87 99 0 60 29 101 89 101 43 0 62-24 78-52l27 14C228-24 195 4 139 4 59 4 22-46 18-125c-6-104 99-153 187-111 19 9 31 26 39 46" id="C"/><g id="b"><use transform="matrix(0.055555555555555546,0,0,0.055555555555555546,0,0)" xlink:href="#A"/><use transform="matrix(0.055555555555555546,0,0,0.055555555555555546,11.83333333333333,0)" xlink:href="#B"/><use transform="matrix(0.055555555555555546,0,0,0.055555555555555546,25.16666666666666,0)" xlink:href="#C"/><use transform="matrix(0.055555555555555546,0,0,0.055555555555555546,39.55555555555554,0)" xlink:href="#z"/></g><path fill="#333" d="M114-163C36-179 61-72 57 0H25l-1-190h30c1 12-1 29 2 39 6-27 23-49 58-41v29" id="D"/><path fill="#333" d="M85-194c31 0 48 13 60 33l-1-100h32l1 261h-30c-2-10 0-23-3-31C134-8 116 4 85 4 32 4 16-35 15-94c0-66 23-100 70-100zm9 24c-40 0-46 34-46 75 0 40 6 74 45 74 42 0 51-32 51-76 0-42-9-74-50-73" id="E"/><g id="c"><use transform="matrix(0.055555555555555546,0,0,0.055555555555555546,0,0)" xlink:href="#t"/><use transform="matrix(0.055555555555555546,0,0,0.055555555555555546,15.555555555555554,0)" xlink:href="#D"/><use transform="matrix(0.055555555555555546,0,0,0.055555555555555546,22.166666666666664,0)" xlink:href="#E"/><use transform="matrix(0.055555555555555546,0,0,0.055555555555555546,33.27777777777777,0)" xlink:href="#v"/><use transform="matrix(0.055555555555555546,0,0,0.055555555555555546,44.38888888888888,0)" xlink:href="#D"/></g><g id="d"><use transform="matrix(0.055555555555555546,0,0,0.055555555555555546,0,0)" xlink:href="#A"/><use transform="matrix(0.055555555555555546,0,0,0.055555555555555546,11.83333333333333,0)" xlink:href="#B"/><use transform="matrix(0.055555555555555546,0,0,0.055555555555555546,25.16666666666666,0)" xlink:href="#C"/><use transform="matrix(0.055555555555555546,0,0,0.055555555555555546,39.55555555555554,0)" xlink:href="#z"/></g><path fill="#333" d="M33 0v-248h34V0H33" id="F"/><path fill="#333" d="M210-169c-67 3-38 105-44 169h-31v-121c0-29-5-50-35-48C34-165 62-65 56 0H25l-1-190h30c1 10-1 24 2 32 10-44 99-50 107 0 11-21 27-35 58-36 85-2 47 119 55 194h-31v-121c0-29-5-49-35-48" id="G"/><path fill="#333" d="M141-36C126-15 110 5 73 4 37 3 15-17 15-53c-1-64 63-63 125-63 3-35-9-54-41-54-24 1-41 7-42 31l-33-3c5-37 33-52 76-52 45 0 72 20 72 64v82c-1 20 7 32 28 27v20c-31 9-61-2-59-35zM48-53c0 20 12 33 32 33 41-3 63-29 60-74-43 2-92-5-92 41" id="H"/><path fill="#333" d="M177-190C167-65 218 103 67 71c-23-6-38-20-44-43l32-5c15 47 100 32 89-28v-30C133-14 115 1 83 1 29 1 15-40 15-95c0-56 16-97 71-98 29-1 48 16 59 35 1-10 0-23 2-32h30zM94-22c36 0 50-32 50-73 0-42-14-75-50-75-39 0-46 34-46 75s6 73 46 73" id="I"/><g id="e"><use transform="matrix(0.055555555555555546,0,0,0.055555555555555546,0,0)" xlink:href="#F"/><use transform="matrix(0.055555555555555546,0,0,0.055555555555555546,5.5555555555555545,0)" xlink:href="#G"/><use transform="matrix(0.055555555555555546,0,0,0.055555555555555546,22.16666666666666,0)" xlink:href="#H"/><use transform="matrix(0.055555555555555546,0,0,0.055555555555555546,33.27777777777777,0)" xlink:href="#I"/><use transform="matrix(0.055555555555555546,0,0,0.055555555555555546,44.38888888888888,0)" xlink:href="#v"/></g><path fill="#333" d="M232-93c-1 65-40 97-104 97C67 4 28-28 28-90v-158h33c8 89-33 224 67 224 102 0 64-133 71-224h33v155" id="J"/><path fill="#333" d="M101-234c-31-9-42 10-38 44h38v23H63V0H32v-167H5v-23h27c-7-52 17-82 69-68v24" id="K"/><path fill="#333" d="M84 4C-5 8 30-112 23-190h32v120c0 31 7 50 39 49 72-2 45-101 50-169h31l1 190h-30c-1-10 1-25-2-33-11 22-28 36-60 37" id="L"/><path fill="#333" d="M24 0v-261h32V0H24" id="M"/><path fill="#333" d="M24-231v-30h32v30H24zM24 0v-190h32V0H24" id="N"/><g id="f"><use transform="matrix(0.055555555555555546,0,0,0.055555555555555546,0,0)" xlink:href="#J"/><use transform="matrix(0.055555555555555546,0,0,0.055555555555555546,14.388888888888886,0)" xlink:href="#w"/><use transform="matrix(0.055555555555555546,0,0,0.055555555555555546,25.499999999999993,0)" xlink:href="#K"/><use transform="matrix(0.055555555555555546,0,0,0.055555555555555546,31.055555555555543,0)" xlink:href="#L"/><use transform="matrix(0.055555555555555546,0,0,0.055555555555555546,42.16666666666666,0)" xlink:href="#M"/><use transform="matrix(0.055555555555555546,0,0,0.055555555555555546,46.55555555555554,0)" xlink:href="#K"/><use transform="matrix(0.055555555555555546,0,0,0.055555555555555546,52.1111111111111,0)" xlink:href="#N"/><use transform="matrix(0.055555555555555546,0,0,0.055555555555555546,56.499999999999986,0)" xlink:href="#M"/><use transform="matrix(0.055555555555555546,0,0,0.055555555555555546,60.888888888888864,0)" xlink:href="#M"/><use transform="matrix(0.055555555555555546,0,0,0.055555555555555546,65.27777777777776,0)" xlink:href="#v"/><use transform="matrix(0.055555555555555546,0,0,0.055555555555555546,76.38888888888887,0)" xlink:href="#E"/></g><g id="g"><use transform="matrix(0.055555555555555546,0,0,0.055555555555555546,0,0)" xlink:href="#F"/><use transform="matrix(0.055555555555555546,0,0,0.055555555555555546,5.5555555555555545,0)" xlink:href="#G"/><use transform="matrix(0.055555555555555546,0,0,0.055555555555555546,22.16666666666666,0)" xlink:href="#H"/><use transform="matrix(0.055555555555555546,0,0,0.055555555555555546,33.27777777777777,0)" xlink:href="#I"/><use transform="matrix(0.055555555555555546,0,0,0.055555555555555546,44.38888888888888,0)" xlink:href="#v"/></g><path fill="#333" d="M206 0h-36l-40-164L89 0H53L-1-190h32L70-26l43-164h34l41 164 42-164h31" id="O"/><path fill="#333" d="M59-47c-2 24 18 29 38 22v24C64 9 27 4 27-40v-127H5v-23h24l9-43h21v43h35v23H59v120" id="P"/><path fill="#333" d="M106-169C34-169 62-67 57 0H25v-261h32l-1 103c12-21 28-36 61-36 89 0 53 116 60 194h-32v-121c2-32-8-49-39-48" id="Q"/><g id="h"><use transform="matrix(0.055555555555555546,0,0,0.055555555555555546,0,0)" xlink:href="#O"/><use transform="matrix(0.055555555555555546,0,0,0.055555555555555546,14.388888888888886,0)" xlink:href="#N"/><use transform="matrix(0.055555555555555546,0,0,0.055555555555555546,18.777777777777775,0)" xlink:href="#P"/><use transform="matrix(0.055555555555555546,0,0,0.055555555555555546,24.33333333333333,0)" xlink:href="#Q"/></g><path fill="#333" d="M100-194c62-1 85 37 85 99 1 63-27 99-86 99S16-35 15-95c0-66 28-99 85-99zM99-20c44 1 53-31 53-75 0-43-8-75-51-75s-53 32-53 75 10 74 51 75" id="R"/><g id="i"><use transform="matrix(0.055555555555555546,0,0,0.055555555555555546,0,0)" xlink:href="#O"/><use transform="matrix(0.055555555555555546,0,0,0.055555555555555546,14.388888888888886,0)" xlink:href="#N"/><use transform="matrix(0.055555555555555546,0,0,0.055555555555555546,18.777777777777775,0)" xlink:href="#P"/><use transform="matrix(0.055555555555555546,0,0,0.055555555555555546,24.33333333333333,0)" xlink:href="#Q"/><use transform="matrix(0.055555555555555546,0,0,0.055555555555555546,35.444444444444436,0)" xlink:href="#R"/><use transform="matrix(0.055555555555555546,0,0,0.055555555555555546,46.55555555555554,0)" xlink:href="#L"/><use transform="matrix(0.055555555555555546,0,0,0.055555555555555546,57.66666666666666,0)" xlink:href="#P"/></g><path fill="#333" d="M110-194c64 0 96 36 96 99 0 64-35 99-97 99-61 0-95-36-95-99 0-62 34-99 96-99zm-1 164c35 0 45-28 45-65 0-40-10-65-43-65-34 0-45 26-45 65 0 36 10 65 43 65" id="S"/><path fill="#333" d="M135-150c-39-12-60 13-60 57V0H25l-1-190h47c2 13-1 29 3 40 6-28 27-53 61-41v41" id="T"/><path fill="#333" d="M88-194c31-1 46 15 58 34l-1-101h50l1 261h-48c-2-10 0-23-3-31C134-8 116 4 84 4 32 4 16-41 15-95c0-56 19-97 73-99zm17 164c33 0 40-30 41-66 1-37-9-64-41-64s-38 30-39 65c0 43 13 65 39 65" id="U"/><path fill="#333" d="M185-48c-13 30-37 53-82 52C43 2 14-33 14-96s30-98 90-98c62 0 83 45 84 108H66c0 31 8 55 39 56 18 0 30-7 34-22zm-45-69c5-46-57-63-70-21-2 6-4 13-4 21h74" id="V"/><g id="j"><use transform="matrix(0.04938271604938272,0,0,0.04938271604938272,0,0)" xlink:href="#S"/><use transform="matrix(0.04938271604938272,0,0,0.04938271604938272,10.814814814814815,0)" xlink:href="#T"/><use transform="matrix(0.04938271604938272,0,0,0.04938271604938272,17.728395061728396,0)" xlink:href="#U"/><use transform="matrix(0.04938271604938272,0,0,0.04938271604938272,28.543209876543205,0)" xlink:href="#V"/><use transform="matrix(0.04938271604938272,0,0,0.04938271604938272,38.41975308641975,0)" xlink:href="#T"/></g><path fill="#333" d="M135-194c87-1 58 113 63 194h-50c-7-57 23-157-34-157-59 0-34 97-39 157H25l-1-190h47c2 12-1 28 3 38 12-26 28-41 61-42" id="W"/><path fill="#333" d="M25 0v-261h50V0H25" id="X"/><path fill="#333" d="M123 10C108 53 80 86 19 72V37c35 8 53-11 59-39L3-190h52l48 148c12-52 28-100 44-148h51" id="Y"/><g id="k"><use transform="matrix(0.04938271604938272,0,0,0.04938271604938272,0,0)" xlink:href="#S"/><use transform="matrix(0.04938271604938272,0,0,0.04938271604938272,10.814814814814815,0)" xlink:href="#W"/><use transform="matrix(0.04938271604938272,0,0,0.04938271604938272,21.62962962962963,0)" xlink:href="#X"/><use transform="matrix(0.04938271604938272,0,0,0.04938271604938272,26.567901234567902,0)" xlink:href="#Y"/></g><path fill="#333" d="M25-224v-37h50v37H25zM25 0v-190h50V0H25" id="Z"/><path fill="#333" d="M220-157c-53 9-28 100-34 157h-49v-107c1-27-5-49-29-50C55-147 81-57 75 0H25l-1-190h47c2 12-1 28 3 38 10-53 101-56 108 0 13-22 24-43 59-42 82 1 51 116 57 194h-49v-107c-1-25-5-48-29-50" id="aa"/><path fill="#333" d="M133-34C117-15 103 5 69 4 32 3 11-16 11-54c-1-60 55-63 116-61 1-26-3-47-28-47-18 1-26 9-28 27l-52-2c7-38 36-58 82-57s74 22 75 68l1 82c-1 14 12 18 25 15v27c-30 8-71 5-69-32zm-48 3c29 0 43-24 42-57-32 0-66-3-65 30 0 17 8 27 23 27" id="ab"/><path fill="#333" d="M195-6C206 82 75 100 31 46c-4-6-6-13-8-21l49-6c3 16 16 24 34 25 40 0 42-37 40-79-11 22-30 35-61 35-53 0-70-43-70-97 0-56 18-96 73-97 30 0 46 14 59 34l2-30h47zm-90-29c32 0 41-27 41-63 0-35-9-62-40-62-32 0-39 29-40 63 0 36 9 62 39 62" id="ac"/><g id="l"><use transform="matrix(0.04938271604938272,0,0,0.04938271604938272,0,0)" xlink:href="#Z"/><use transform="matrix(0.04938271604938272,0,0,0.04938271604938272,4.938271604938272,0)" xlink:href="#aa"/><use transform="matrix(0.04938271604938272,0,0,0.04938271604938272,20.74074074074074,0)" xlink:href="#ab"/><use transform="matrix(0.04938271604938272,0,0,0.04938271604938272,30.617283950617285,0)" xlink:href="#ac"/><use transform="matrix(0.04938271604938272,0,0,0.04938271604938272,41.4320987654321,0)" xlink:href="#V"/></g><path fill="#333" d="M125-100v72H85v-72H15v-39h70v-72h40v72h71v39h-71" id="ad"/><use transform="matrix(0.04938271604938272,0,0,0.04938271604938272,0,0)" xlink:href="#ad" id="m"/><g id="n"><use transform="matrix(0.04938271604938272,0,0,0.04938271604938272,0,0)" xlink:href="#Z"/><use transform="matrix(0.04938271604938272,0,0,0.04938271604938272,4.938271604938272,0)" xlink:href="#aa"/><use transform="matrix(0.04938271604938272,0,0,0.04938271604938272,20.74074074074074,0)" xlink:href="#ab"/><use transform="matrix(0.04938271604938272,0,0,0.04938271604938272,30.617283950617285,0)" xlink:href="#ac"/><use transform="matrix(0.04938271604938272,0,0,0.04938271604938272,41.4320987654321,0)" xlink:href="#V"/></g><path fill="#333" d="M179-190L93 31C79 59 56 82 12 73V49c39 6 53-20 64-50L1-190h34L92-34l54-156h33" id="ae"/><g id="o"><use transform="matrix(0.055555555555555546,0,0,0.055555555555555546,0,0)" xlink:href="#y"/><use transform="matrix(0.055555555555555546,0,0,0.055555555555555546,14.388888888888886,0)" xlink:href="#H"/><use transform="matrix(0.055555555555555546,0,0,0.055555555555555546,25.499999999999993,0)" xlink:href="#E"/><use transform="matrix(0.055555555555555546,0,0,0.055555555555555546,36.6111111111111,0)" xlink:href="#N"/><use transform="matrix(0.055555555555555546,0,0,0.055555555555555546,40.999999999999986,0)" xlink:href="#R"/><use transform="matrix(0.055555555555555546,0,0,0.055555555555555546,52.11111111111109,0)" xlink:href="#M"/><use transform="matrix(0.055555555555555546,0,0,0.055555555555555546,56.49999999999998,0)" xlink:href="#R"/><use transform="matrix(0.055555555555555546,0,0,0.055555555555555546,67.61111111111109,0)" xlink:href="#I"/><use transform="matrix(0.055555555555555546,0,0,0.055555555555555546,78.7222222222222,0)" xlink:href="#ae"/></g><path fill="#333" d="M190 0L58-211 59 0H30v-248h39L202-35l-2-213h31V0h-41" id="af"/><path fill="#333" d="M135-143c-3-34-86-38-87 0 15 53 115 12 119 90S17 21 10-45l28-5c4 36 97 45 98 0-10-56-113-15-118-90-4-57 82-63 122-42 12 7 21 19 24 35" id="ag"/><g id="p"><use transform="matrix(0.055555555555555546,0,0,0.055555555555555546,0,0)" xlink:href="#af"/><use transform="matrix(0.055555555555555546,0,0,0.055555555555555546,14.388888888888886,0)" xlink:href="#R"/><use transform="matrix(0.055555555555555546,0,0,0.055555555555555546,25.499999999999993,0)" xlink:href="#P"/><use transform="matrix(0.055555555555555546,0,0,0.055555555555555546,31.055555555555543,0)" xlink:href="#v"/><use transform="matrix(0.055555555555555546,0,0,0.055555555555555546,42.16666666666666,0)" xlink:href="#ag"/></g><path fill="#333" d="M186 0v-106H76V0H24v-248h52v99h110v-99h50V0h-50" id="ah"/><path fill="#333" d="M137-138c1-29-70-34-71-4 15 46 118 7 119 86 1 83-164 76-172 9l43-7c4 19 20 25 44 25 33 8 57-30 24-41C81-84 22-81 20-136c-2-80 154-74 161-7" id="ai"/><g id="q"><use transform="matrix(0.04938271604938272,0,0,0.04938271604938272,0,0)" xlink:href="#ah"/><use transform="matrix(0.04938271604938272,0,0,0.04938271604938272,12.790123456790125,0)" xlink:href="#ab"/><use transform="matrix(0.04938271604938272,0,0,0.04938271604938272,22.66666666666667,0)" xlink:href="#ai"/></g><path fill="#333" d="M175 0L67-191c6 58 2 128 3 191H24v-248h59L193-55c-6-58-2-129-3-193h46V0h-61" id="aj"/><path fill="#333" d="M115-3C79 11 28 4 28-45v-112H4v-33h27l15-45h31v45h36v33H77v99c-1 23 16 31 38 25v30" id="ak"/><g id="r"><use transform="matrix(0.04938271604938272,0,0,0.04938271604938272,0,0)" xlink:href="#aj"/><use transform="matrix(0.04938271604938272,0,0,0.04938271604938272,12.790123456790125,0)" xlink:href="#S"/><use transform="matrix(0.04938271604938272,0,0,0.04938271604938272,23.60493827160494,0)" xlink:href="#ak"/><use transform="matrix(0.04938271604938272,0,0,0.04938271604938272,29.481481481481485,0)" xlink:href="#V"/><use transform="matrix(0.04938271604938272,0,0,0.04938271604938272,39.358024691358025,0)" xlink:href="#ai"/></g><g id="s"><use transform="matrix(0.04938271604938272,0,0,0.04938271604938272,0,0)" xlink:href="#aj"/><use transform="matrix(0.04938271604938272,0,0,0.04938271604938272,12.790123456790125,0)" xlink:href="#S"/></g></defs></g></svg>