<svg xmlns="http://www.w3.org/2000/svg" xmlns:xlink="http://www.w3.org/1999/xlink" xmlns:lucid="lucid" width="1476" height="482.33"><g transform="translate(-44 -60)" lucid:page-tab-id="0_0"><path d="M0 0h1870.87v1322.83H0z" fill="#fff"/><path d="M100 106c0-3.3 2.7-6 6-6h188c3.3 0 6 2.7 6 6v408c0 3.3-2.7 6-6 6H106c-3.3 0-6-2.7-6-6z" stroke="#5e5e5e" stroke-width="2" fill="#c1e4f7"/><use xlink:href="#a" transform="matrix(1,0,0,1,105,105) translate(54.351851851851855 29.77777777777778)"/><use xlink:href="#b" transform="matrix(1,0,0,1,105,105) translate(42.03703703703704 56.44444444444445)"/><path d="M500 106c0-3.3 2.7-6 6-6h188c3.3 0 6 2.7 6 6v168c0 3.3-2.7 6-6 6H506c-3.3 0-6-2.7-6-6z" stroke="#5e5e5e" stroke-width="2" fill="#ffeca9"/><use xlink:href="#c" transform="matrix(1,0,0,1,505,105) translate(4.7222222222222285 29.77777777777778)"/><use xlink:href="#d" transform="matrix(1,0,0,1,505,105) translate(70.83333333333333 29.77777777777778)"/><use xlink:href="#e" transform="matrix(1,0,0,1,505,105) translate(55.49382716049382 56.44444444444445)"/><path d="M900 86c0-3.3 2.7-6 6-6h188c3.3 0 6 2.7 6 6v328c0 3.3-2.7 6-6 6H906c-3.3 0-6-2.7-6-6z" stroke="#5e5e5e" stroke-width="2" fill="#ffbbb1"/><use xlink:href="#c" transform="matrix(1,0,0,1,905,85) translate(27.37654320987656 29.77777777777778)"/><use xlink:href="#f" transform="matrix(1,0,0,1,905,85) translate(93.48765432098766 29.77777777777778)"/><use xlink:href="#g" transform="matrix(1,0,0,1,905,85) translate(33.39506172839505 56.44444444444445)"/><path d="M1300 106c0-3.3 2.7-6 6-6h188c3.3 0 6 2.7 6 6v273c0 3.3-2.7 6-6 6h-188c-3.3 0-6-2.7-6-6z" stroke="#5e5e5e" stroke-width="2" fill="#c7e8ac"/><use xlink:href="#h" transform="matrix(1,0,0,1,1305,105) translate(15.555555555555557 29.77777777777778)"/><use xlink:href="#i" transform="matrix(1,0,0,1,1305,105) translate(84.5679012345679 29.77777777777778)"/><use xlink:href="#j" transform="matrix(1,0,0,1,1305,105) translate(26.604938271604937 56.44444444444445)"/><path d="M106 178c0-3.3 2.7-6 6-6h188c3.3 0 6 2.7 6 6v19.67c0 3.3-2.7 6-6 6H112c-3.3 0-6-2.7-6-6z" stroke="#000" stroke-opacity="0" stroke-width="3" fill="#fff" fill-opacity="0"/><use xlink:href="#k" transform="matrix(1,0,0,1,111,177) translate(0 17.375)"/><path d="M497.5 203.62H325.86" stroke="#5e5e5e" stroke-width="5" fill="none"/><path d="M500 206.12h-2.56v-5H500z" fill="#5e5e5e"/><path d="M309.1 203.62l14.26-4.63v9.26z" stroke="#5e5e5e" stroke-width="5" fill="#5e5e5e"/><use xlink:href="#l" transform="matrix(1,0,0,1,334.4753086419753,178.28834720570745) translate(0 14.222222222222223)"/><use xlink:href="#m" transform="matrix(1,0,0,1,334.4753086419753,178.28834720570745) translate(83.75308641975309 14.222222222222223)"/><path d="M100 206.33c0-3.3 2.7-6 6-6h168c3.3 0 6 2.7 6 6v118c0 3.32-2.7 6-6 6H106c-3.3 0-6-2.68-6-6z" stroke="#000" stroke-opacity="0" stroke-width="3" fill="#fff" fill-opacity="0"/><use xlink:href="#n" transform="matrix(1,0,0,1,105,205.33333333333337) translate(7.611111111111111 15.999999999999998)"/><use xlink:href="#o" transform="matrix(1,0,0,1,105,205.33333333333337) translate(22.22222222222222 15.999999999999998)"/><use xlink:href="#p" transform="matrix(1,0,0,1,105,205.33333333333337) translate(64.38888888888889 15.999999999999998)"/><use xlink:href="#q" transform="matrix(1,0,0,1,105,205.33333333333337) translate(114.27777777777777 15.999999999999998)"/><use xlink:href="#n" transform="matrix(1,0,0,1,105,205.33333333333337) translate(7.611111111111111 39.99999999999999)"/><use xlink:href="#r" transform="matrix(1,0,0,1,105,205.33333333333337) translate(22.22222222222222 39.99999999999999)"/><use xlink:href="#s" transform="matrix(1,0,0,1,105,205.33333333333337) translate(55.55555555555555 39.99999999999999)"/><use xlink:href="#t" transform="matrix(1,0,0,1,105,205.33333333333337) translate(103.33333333333331 39.99999999999999)"/><use xlink:href="#u" transform="matrix(1,0,0,1,105,205.33333333333337) translate(22.22222222222222 63.99999999999999)"/><use xlink:href="#v" transform="matrix(1,0,0,1,105,205.33333333333337) translate(51.05555555555555 63.99999999999999)"/><use xlink:href="#n" transform="matrix(1,0,0,1,105,205.33333333333337) translate(7.611111111111111 87.99999999999999)"/><use xlink:href="#r" transform="matrix(1,0,0,1,105,205.33333333333337) translate(22.22222222222222 87.99999999999999)"/><use xlink:href="#w" transform="matrix(1,0,0,1,105,205.33333333333337) translate(55.55555555555555 87.99999999999999)"/><use xlink:href="#x" transform="matrix(1,0,0,1,105,205.33333333333337) translate(109.99999999999999 87.99999999999999)"/><use xlink:href="#y" transform="matrix(1,0,0,1,105,205.33333333333337) translate(22.22222222222222 111.99999999999999)"/><path d="M940 194.33c0-3.3 2.7-6 6-6h108c3.3 0 6 2.7 6 6v67.56c0 3.3-2.7 6-6 6H946c-3.3 0-6-2.7-6-6z" stroke="#5e5e5e" stroke-width="3" fill="#fff"/><use xlink:href="#z" transform="matrix(1,0,0,1,945,193.33333333333337) translate(29.135802469135808 17.77777777777778)"/><path d="M500 188.28c0-3.3 2.7-6 6-6h188c3.3 0 6 2.7 6 6v79.67c0 3.3-2.7 6-6 6H506c-3.3 0-6-2.7-6-6z" stroke="#000" stroke-opacity="0" stroke-width="3" fill="#fff" fill-opacity="0"/><use xlink:href="#n" transform="matrix(1,0,0,1,505,187.2807912786634) translate(7.611111111111111 15.999999999999998)"/><use xlink:href="#A" transform="matrix(1,0,0,1,505,187.2807912786634) translate(22.22222222222222 15.999999999999998)"/><use xlink:href="#B" transform="matrix(1,0,0,1,505,187.2807912786634) translate(77.72222222222221 15.999999999999998)"/><use xlink:href="#C" transform="matrix(1,0,0,1,505,187.2807912786634) translate(119.88888888888887 15.999999999999998)"/><use xlink:href="#n" transform="matrix(1,0,0,1,505,187.2807912786634) translate(7.611111111111111 39.99999999999999)"/><use xlink:href="#D" transform="matrix(1,0,0,1,505,187.2807912786634) translate(22.22222222222222 39.99999999999999)"/><use xlink:href="#E" transform="matrix(1,0,0,1,505,187.2807912786634) translate(71.1111111111111 39.99999999999999)"/><use xlink:href="#F" transform="matrix(1,0,0,1,505,187.2807912786634) translate(123.2222222222222 39.99999999999999)"/><use xlink:href="#G" transform="matrix(1,0,0,1,505,187.2807912786634) translate(145.44444444444443 39.99999999999999)"/><path d="M913.64 231.24H703.5" stroke="#5e5e5e" stroke-width="5" fill="none"/><path d="M930.4 231.24l-14.26 4.63v-9.27z" stroke="#5e5e5e" stroke-width="5" fill="#5e5e5e"/><path d="M703.56 233.74H701v-5h2.56z" fill="#5e5e5e"/><use xlink:href="#H" transform="matrix(1,0,0,1,755.4823979879179,205.90369480739398) translate(0 14.222222222222223)"/><use xlink:href="#I" transform="matrix(1,0,0,1,755.4823979879179,205.90369480739398) translate(38.41975308641975 14.222222222222223)"/><path d="M106 346c0-3.3 2.7-6 6-6h188c3.3 0 6 2.7 6 6v19.67c0 3.3-2.7 6-6 6H112c-3.3 0-6-2.7-6-6z" stroke="#000" stroke-opacity="0" stroke-width="3" fill="#fff" fill-opacity="0"/><use xlink:href="#J" transform="matrix(1,0,0,1,111,345) translate(0 17.375)"/><path d="M100 374.33c0-3.3 2.7-6 6-6h168c3.3 0 6 2.7 6 6v142c0 3.32-2.7 6-6 6H106c-3.3 0-6-2.68-6-6z" stroke="#000" stroke-opacity="0" stroke-width="3" fill="#fff" fill-opacity="0"/><use xlink:href="#n" transform="matrix(1,0,0,1,105,373.3333333333333) translate(7.611111111111111 15.999999999999998)"/><use xlink:href="#r" transform="matrix(1,0,0,1,105,373.3333333333333) translate(22.22222222222222 15.999999999999998)"/><use xlink:href="#s" transform="matrix(1,0,0,1,105,373.3333333333333) translate(55.55555555555555 15.999999999999998)"/><use xlink:href="#t" transform="matrix(1,0,0,1,105,373.3333333333333) translate(103.33333333333331 15.999999999999998)"/><use xlink:href="#u" transform="matrix(1,0,0,1,105,373.3333333333333) translate(22.22222222222222 39.99999999999999)"/><use xlink:href="#K" transform="matrix(1,0,0,1,105,373.3333333333333) translate(51.05555555555555 39.99999999999999)"/><use xlink:href="#n" transform="matrix(1,0,0,1,105,373.3333333333333) translate(7.611111111111111 63.99999999999999)"/><use xlink:href="#r" transform="matrix(1,0,0,1,105,373.3333333333333) translate(22.22222222222222 63.99999999999999)"/><use xlink:href="#w" transform="matrix(1,0,0,1,105,373.3333333333333) translate(55.55555555555555 63.99999999999999)"/><use xlink:href="#x" transform="matrix(1,0,0,1,105,373.3333333333333) translate(109.99999999999999 63.99999999999999)"/><use xlink:href="#L" transform="matrix(1,0,0,1,105,373.3333333333333) translate(22.22222222222222 87.99999999999999)"/><use xlink:href="#n" transform="matrix(1,0,0,1,105,373.3333333333333) translate(7.611111111111111 111.99999999999999)"/><use xlink:href="#M" transform="matrix(1,0,0,1,105,373.3333333333333) translate(22.22222222222222 111.99999999999999)"/><use xlink:href="#N" transform="matrix(1,0,0,1,105,373.3333333333333) translate(61.11111111111111 111.99999999999999)"/><use xlink:href="#O" transform="matrix(1,0,0,1,105,373.3333333333333) translate(105.55555555555554 111.99999999999999)"/><use xlink:href="#P" transform="matrix(1,0,0,1,105,373.3333333333333) translate(22.22222222222222 135.99999999999997)"/><path d="M940 326.44c0-3.32 2.7-6 6-6h108c3.3 0 6 2.68 6 6V394c0 3.3-2.7 6-6 6H946c-3.3 0-6-2.7-6-6z" stroke="#5e5e5e" stroke-width="3" fill="#fff"/><g><use xlink:href="#Q" transform="matrix(1,0,0,1,945,325.4384174427121) translate(23.611111111111114 17.77777777777778)"/><use xlink:href="#R" transform="matrix(1,0,0,1,945,325.4384174427121) translate(28.48765432098766 44.44444444444444)"/></g><path d="M1300 215c0-3.3 2.7-6 6-6h188c3.3 0 6 2.7 6 6v28c0 3.3-2.7 6-6 6h-188c-3.3 0-6-2.7-6-6z" stroke="#000" stroke-opacity="0" stroke-width="3" fill="#fff" fill-opacity="0"/><g><use xlink:href="#n" transform="matrix(1,0,0,1,1305,214) translate(7.611111111111111 15.999999999999998)"/><use xlink:href="#S" transform="matrix(1,0,0,1,1305,214) translate(22.22222222222222 15.999999999999998)"/><use xlink:href="#T" transform="matrix(1,0,0,1,1305,214) translate(52.1111111111111 15.999999999999998)"/><use xlink:href="#U" transform="matrix(1,0,0,1,1305,214) translate(103.49999999999997 15.999999999999998)"/></g><path d="M1296.5 360.22h-210.15" stroke="#5e5e5e" stroke-width="5" fill="none"/><path d="M1299 362.72h-2.56v-5h2.56z" fill="#5e5e5e"/><path d="M1069.6 360.22l14.26-4.64v9.27z" stroke="#5e5e5e" stroke-width="5" fill="#5e5e5e"/><g><use xlink:href="#V" transform="matrix(1,0,0,1,1141.0233991820533,334.8858753880226) translate(0 14.222222222222223)"/><use xlink:href="#W" transform="matrix(1,0,0,1,1141.0233991820533,334.8858753880226) translate(64.0493827160494 14.222222222222223)"/></g><path d="M1296.5 225.05h-210.14" stroke="#5e5e5e" stroke-width="5" fill="none"/><path d="M1299 227.55h-2.56v-5h2.56z" fill="#5e5e5e"/><path d="M1069.6 225.05l14.26-4.64v9.28z" stroke="#5e5e5e" stroke-width="5" fill="#5e5e5e"/><g><use xlink:href="#X" transform="matrix(1,0,0,1,1129.3252895852447,199.7129864178642) translate(0 14.222222222222223)"/><use xlink:href="#Y" transform="matrix(1,0,0,1,1129.3252895852447,199.7129864178642) translate(37.48148148148149 14.222222222222223)"/><use xlink:href="#Z" transform="matrix(1,0,0,1,1129.3252895852447,199.7129864178642) translate(84.39506172839506 14.222222222222223)"/></g><path d="M1300 351c0-3.3 2.7-6 6-6h188c3.3 0 6 2.7 6 6v28c0 3.3-2.7 6-6 6h-188c-3.3 0-6-2.7-6-6z" stroke="#000" stroke-opacity="0" stroke-width="3" fill="#fff" fill-opacity="0"/><g><use xlink:href="#n" transform="matrix(1,0,0,1,1305,350) translate(7.611111111111111 15.999999999999998)"/><use xlink:href="#aa" transform="matrix(1,0,0,1,1305,350) translate(22.22222222222222 15.999999999999998)"/><use xlink:href="#B" transform="matrix(1,0,0,1,1305,350) translate(65.55555555555554 15.999999999999998)"/><use xlink:href="#ab" transform="matrix(1,0,0,1,1305,350) translate(107.7222222222222 15.999999999999998)"/></g><path d="M303.5 248.13H364c3.3 0 6 2.68 6 6v100.1c0 3.3 2.7 6 6 6h537.64" stroke="#5e5e5e" stroke-width="5" fill="none"/><path d="M303.56 250.63H301v-5h2.56z" fill="#5e5e5e"/><path d="M930.4 360.22l-14.26 4.63v-9.27z" stroke="#5e5e5e" stroke-width="5" fill="#5e5e5e"/><path d="M303.5 404.2H364c3.3 0 6-2.7 6-6V366.2c0-3.3 2.7-6 6-6h537.64" stroke="#5e5e5e" stroke-width="5" fill="none"/><path d="M303.56 406.7H301v-5h2.56z" fill="#5e5e5e"/><path d="M930.4 360.22l-14.26 4.63v-9.27z" stroke="#5e5e5e" stroke-width="5" fill="#5e5e5e"/><g><use xlink:href="#V" transform="matrix(1,0,0,1,546.0103788018267,334.88587538802267) translate(0 14.222222222222223)"/><use xlink:href="#ac" transform="matrix(1,0,0,1,546.0103788018267,334.88587538802267) translate(64.0493827160494 14.222222222222223)"/></g><path d="M1132.5 315.53l-.3 4.3-1.24 5.24-2.16 4.96-3.02 4.54-3.8 3.93-4.43 3.2-4.88 2.34-5.22 1.43-5.34.47H1064v-5h37.9l4.66-.4 4.35-1.2 4.1-1.96 3.7-2.67 3.17-3.28 2.52-3.8 1.8-4.13 1.04-4.43.26-3.7v-10h5zm-26.12-71.8l5.25 1.25 4.96 2.16 4.52 3.02 3.94 3.8 3.2 4.43 2.33 4.87 1.42 5.22.48 5.33v10.2h-5v-9.98l-.42-4.67-1.2-4.35-1.94-4.08-2.67-3.7-3.3-3.18-3.78-2.52-4.16-1.8-4.4-1.05-3.73-.26h-15.54v-5h15.73z" fill="#5e5e5e"/><path d="M1064.06 345.94h-2.56v-5h2.56zM1083.86 250.58l-14.27-4.64 14.26-4.64z" fill="#5e5e5e"/><path d="M1086.36 254.02l-24.86-8.08 24.86-8.08zm-8.68-8.08l3.68 1.2v-2.4z" fill="#5e5e5e"/><g><use xlink:href="#ad" transform="matrix(1,0,0,1,1062.4444444444443,284.0251224667396) translate(0 14.222222222222223)"/><use xlink:href="#ae" transform="matrix(1,0,0,1,1062.4444444444443,284.0251224667396) translate(84.79012345679013 14.222222222222223)"/></g><path d="M110 213c0 13.25-10.3 24-23 24s-23-10.75-23-24 10.3-24 23-24 23 10.75 23 24z" stroke="#5e5e5e" stroke-width="3" fill="#fff"/><g><use xlink:href="#af" transform="matrix(1,0,0,1,69,194) translate(11.827160493827162 24.52777777777778)"/></g><path d="M495 234c0 13.25-10.3 24-23 24s-23-10.75-23-24 10.3-24 23-24 23 10.75 23 24z" stroke="#5e5e5e" stroke-width="3" fill="#fff"/><g><use xlink:href="#ag" transform="matrix(1,0,0,1,454,215) translate(11.827160493827162 24.52777777777778)"/></g><path d="M895 261c0 13.25-10.3 24-23 24s-23-10.75-23-24 10.3-24 23-24 23 10.75 23 24z" stroke="#5e5e5e" stroke-width="3" fill="#fff"/><g><use xlink:href="#ah" transform="matrix(1,0,0,1,854,242) translate(11.827160493827162 24.52777777777778)"/></g><path d="M1295 254.95c0 13.25-10.3 24-23 24s-23-10.75-23-24c0-13.26 10.3-24 23-24s23 10.74 23 24z" stroke="#5e5e5e" stroke-width="3" fill="#fff"/><g><use xlink:href="#ai" transform="matrix(1,0,0,1,1254,235.94745794529126) translate(11.827160493827162 24.52777777777778)"/></g><path d="M1295 389c0 13.25-10.3 24-23 24s-23-10.75-23-24 10.3-24 23-24 23 10.75 23 24z" stroke="#5e5e5e" stroke-width="3" fill="#fff"/><g><use xlink:href="#aj" transform="matrix(1,0,0,1,1254,370) translate(11.827160493827162 24.52777777777778)"/></g><path d="M1110 397c0 13.25-10.3 24-23 24s-23-10.75-23-24 10.3-24 23-24 23 10.75 23 24z" stroke="#5e5e5e" stroke-width="3" fill="#fff"/><g><use xlink:href="#ak" transform="matrix(1,0,0,1,1069,378) translate(11.827160493827162 24.52777777777778)"/></g><path d="M351 278c0 13.25-10.3 24-23 24s-23-10.75-23-24 10.3-24 23-24 23 10.75 23 24z" stroke="#5e5e5e" stroke-width="3" fill="#fff"/><g><use xlink:href="#al" transform="matrix(1,0,0,1,310,259) translate(11.827160493827162 24.52777777777778)"/></g><path d="M351 435c0 13.25-10.3 24-23 24s-23-10.75-23-24 10.3-24 23-24 23 10.75 23 24z" stroke="#5e5e5e" stroke-width="3" fill="#fff"/><g><use xlink:href="#am" transform="matrix(1,0,0,1,310,416) translate(11.827160493827162 24.52777777777778)"/></g><defs><path fill="#333" d="M182-130c37 4 62 22 62 59C244 23 116-4 24 0v-248c84 5 203-23 205 63 0 31-19 50-47 55zM76-148c40-3 101 13 101-30 0-44-60-28-101-31v61zm0 110c48-3 116 14 116-37 0-48-69-32-116-35v72" id="an"/><path fill="#333" d="M133-34C117-15 103 5 69 4 32 3 11-16 11-54c-1-60 55-63 116-61 1-26-3-47-28-47-18 1-26 9-28 27l-52-2c7-38 36-58 82-57s74 22 75 68l1 82c-1 14 12 18 25 15v27c-30 8-71 5-69-32zm-48 3c29 0 43-24 42-57-32 0-66-3-65 30 0 17 8 27 23 27" id="ao"/><path fill="#333" d="M114-157C55-157 80-60 75 0H25v-261h50l-1 109c12-26 28-41 61-42 86-1 58 113 63 194h-50c-7-57 23-157-34-157" id="ap"/><path fill="#333" d="M220-157c-53 9-28 100-34 157h-49v-107c1-27-5-49-29-50C55-147 81-57 75 0H25l-1-190h47c2 12-1 28 3 38 10-53 101-56 108 0 13-22 24-43 59-42 82 1 51 116 57 194h-49v-107c-1-25-5-48-29-50" id="aq"/><path fill="#333" d="M135-194c87-1 58 113 63 194h-50c-7-57 23-157-34-157-59 0-34 97-39 157H25l-1-190h47c2 12-1 28 3 38 12-26 28-41 61-42" id="ar"/><path fill="#333" d="M25-224v-37h50v37H25zM25 0v-190h50V0H25" id="as"/><g id="a"><use transform="matrix(0.06172839506172839,0,0,0.06172839506172839,0,0)" xlink:href="#an"/><use transform="matrix(0.06172839506172839,0,0,0.06172839506172839,15.987654320987653,0)" xlink:href="#ao"/><use transform="matrix(0.06172839506172839,0,0,0.06172839506172839,28.333333333333332,0)" xlink:href="#ap"/><use transform="matrix(0.06172839506172839,0,0,0.06172839506172839,41.85185185185185,0)" xlink:href="#aq"/><use transform="matrix(0.06172839506172839,0,0,0.06172839506172839,61.60493827160494,0)" xlink:href="#ar"/><use transform="matrix(0.06172839506172839,0,0,0.06172839506172839,75.12345679012346,0)" xlink:href="#as"/></g><path fill="#333" d="M140-251c80 0 125 45 125 126S219 4 139 4C58 4 15-44 15-125s44-126 125-126zm-1 214c52 0 73-35 73-88 0-50-21-86-72-86-52 0-73 35-73 86s22 88 72 88" id="at"/><path fill="#333" d="M135-194c53 0 70 44 70 98 0 56-19 98-73 100-31 1-45-17-59-34 3 33 2 69 2 105H25l-1-265h48c2 10 0 23 3 31 11-24 29-35 60-35zM114-30c33 0 39-31 40-66 0-38-9-64-40-64-56 0-55 130 0 130" id="au"/><path fill="#333" d="M185-48c-13 30-37 53-82 52C43 2 14-33 14-96s30-98 90-98c62 0 83 45 84 108H66c0 31 8 55 39 56 18 0 30-7 34-22zm-45-69c5-46-57-63-70-21-2 6-4 13-4 21h74" id="av"/><path fill="#333" d="M230 0l2-204L168 0h-37L68-204 70 0H24v-248h70l56 185 57-185h69V0h-46" id="aw"/><path fill="#333" d="M240-174c0 40-23 61-54 70L253 0h-59l-57-94H76V0H24v-248c93 4 217-23 216 74zM76-134c48-2 112 12 112-38 0-48-66-32-112-35v73" id="ax"/><path fill="#333" d="M169-182c-1-43-94-46-97-3 18 66 151 10 154 114 3 95-165 93-204 36-6-8-10-19-12-30l50-8c3 46 112 56 116 5-17-69-150-10-154-114-4-87 153-88 188-35 5 8 8 18 10 28" id="ay"/><g id="b"><use transform="matrix(0.06172839506172839,0,0,0.06172839506172839,0,0)" xlink:href="#at"/><use transform="matrix(0.06172839506172839,0,0,0.06172839506172839,17.28395061728395,0)" xlink:href="#au"/><use transform="matrix(0.06172839506172839,0,0,0.06172839506172839,30.80246913580247,0)" xlink:href="#av"/><use transform="matrix(0.06172839506172839,0,0,0.06172839506172839,43.148148148148145,0)" xlink:href="#ar"/><use transform="matrix(0.06172839506172839,0,0,0.06172839506172839,56.666666666666664,0)" xlink:href="#aw"/><use transform="matrix(0.06172839506172839,0,0,0.06172839506172839,75.12345679012346,0)" xlink:href="#ax"/><use transform="matrix(0.06172839506172839,0,0,0.06172839506172839,91.11111111111111,0)" xlink:href="#ay"/></g><path fill="#333" d="M24-248c93 1 206-16 204 79-1 75-69 88-152 82V0H24v-248zm52 121c47 0 100 7 100-41 0-47-54-39-100-39v80" id="az"/><path fill="#333" d="M199 0l-22-63H83L61 0H9l90-248h61L250 0h-51zm-33-102l-36-108c-10 38-24 72-36 108h72" id="aA"/><path fill="#333" d="M67-125c0 53 21 87 73 88 37 1 54-22 65-47l45 17C233-25 199 4 140 4 58 4 20-42 15-125 8-235 124-281 211-232c18 10 29 29 36 50l-46 12c-8-25-30-41-62-41-52 0-71 34-72 86" id="aB"/><g id="c"><use transform="matrix(0.06172839506172839,0,0,0.06172839506172839,0,0)" xlink:href="#az"/><use transform="matrix(0.06172839506172839,0,0,0.06172839506172839,13.148148148148147,0)" xlink:href="#aA"/><use transform="matrix(0.06172839506172839,0,0,0.06172839506172839,29.1358024691358,0)" xlink:href="#aB"/><use transform="matrix(0.06172839506172839,0,0,0.06172839506172839,45.123456790123456,0)" xlink:href="#ay"/></g><path fill="#333" d="M24 0v-248h52V0H24" id="aC"/><path fill="#333" d="M115-3C79 11 28 4 28-45v-112H4v-33h27l15-45h31v45h36v33H77v99c-1 23 16 31 38 25v30" id="aD"/><path fill="#333" d="M195-6C206 82 75 100 31 46c-4-6-6-13-8-21l49-6c3 16 16 24 34 25 40 0 42-37 40-79-11 22-30 35-61 35-53 0-70-43-70-97 0-56 18-96 73-97 30 0 46 14 59 34l2-30h47zm-90-29c32 0 41-27 41-63 0-35-9-62-40-62-32 0-39 29-40 63 0 36 9 62 39 62" id="aE"/><path fill="#333" d="M135-150c-39-12-60 13-60 57V0H25l-1-190h47c2 13-1 29 3 40 6-28 27-53 61-41v41" id="aF"/><path fill="#333" d="M110-194c64 0 96 36 96 99 0 64-35 99-97 99-61 0-95-36-95-99 0-62 34-99 96-99zm-1 164c35 0 45-28 45-65 0-40-10-65-43-65-34 0-45 26-45 65 0 36 10 65 43 65" id="aG"/><g id="d"><use transform="matrix(0.06172839506172839,0,0,0.06172839506172839,0,0)" xlink:href="#aC"/><use transform="matrix(0.06172839506172839,0,0,0.06172839506172839,6.172839506172839,0)" xlink:href="#ar"/><use transform="matrix(0.06172839506172839,0,0,0.06172839506172839,19.691358024691358,0)" xlink:href="#aD"/><use transform="matrix(0.06172839506172839,0,0,0.06172839506172839,27.037037037037038,0)" xlink:href="#av"/><use transform="matrix(0.06172839506172839,0,0,0.06172839506172839,39.382716049382715,0)" xlink:href="#aE"/><use transform="matrix(0.06172839506172839,0,0,0.06172839506172839,52.901234567901234,0)" xlink:href="#aF"/><use transform="matrix(0.06172839506172839,0,0,0.06172839506172839,61.54320987654321,0)" xlink:href="#ao"/><use transform="matrix(0.06172839506172839,0,0,0.06172839506172839,73.88888888888889,0)" xlink:href="#aD"/><use transform="matrix(0.06172839506172839,0,0,0.06172839506172839,81.23456790123457,0)" xlink:href="#as"/><use transform="matrix(0.06172839506172839,0,0,0.06172839506172839,87.4074074074074,0)" xlink:href="#aG"/><use transform="matrix(0.06172839506172839,0,0,0.06172839506172839,100.92592592592592,0)" xlink:href="#ar"/></g><path fill="#333" d="M128 0H69L1-190h53L99-40l48-150h52" id="aH"/><path fill="#333" d="M190-63c-7 42-38 67-86 67-59 0-84-38-90-98-12-110 154-137 174-36l-49 2c-2-19-15-32-35-32-30 0-35 28-38 64-6 74 65 87 74 30" id="aI"/><g id="e"><use transform="matrix(0.06172839506172839,0,0,0.06172839506172839,0,0)" xlink:href="#ay"/><use transform="matrix(0.06172839506172839,0,0,0.06172839506172839,14.814814814814813,0)" xlink:href="#av"/><use transform="matrix(0.06172839506172839,0,0,0.06172839506172839,27.160493827160494,0)" xlink:href="#aF"/><use transform="matrix(0.06172839506172839,0,0,0.06172839506172839,35.80246913580247,0)" xlink:href="#aH"/><use transform="matrix(0.06172839506172839,0,0,0.06172839506172839,48.148148148148145,0)" xlink:href="#as"/><use transform="matrix(0.06172839506172839,0,0,0.06172839506172839,54.32098765432099,0)" xlink:href="#aI"/><use transform="matrix(0.06172839506172839,0,0,0.06172839506172839,66.66666666666667,0)" xlink:href="#av"/></g><g id="f"><use transform="matrix(0.06172839506172839,0,0,0.06172839506172839,0,0)" xlink:href="#ay"/><use transform="matrix(0.06172839506172839,0,0,0.06172839506172839,14.814814814814813,0)" xlink:href="#av"/><use transform="matrix(0.06172839506172839,0,0,0.06172839506172839,27.160493827160494,0)" xlink:href="#aF"/><use transform="matrix(0.06172839506172839,0,0,0.06172839506172839,35.80246913580247,0)" xlink:href="#aH"/><use transform="matrix(0.06172839506172839,0,0,0.06172839506172839,48.148148148148145,0)" xlink:href="#av"/><use transform="matrix(0.06172839506172839,0,0,0.06172839506172839,60.49382716049382,0)" xlink:href="#aF"/></g><path fill="#333" d="M67-93c0 74 22 123 53 168H70C40 30 18-18 18-93s22-123 52-168h50c-32 44-53 94-53 168" id="aJ"/><path fill="#333" d="M88-194c31-1 46 15 58 34l-1-101h50l1 261h-48c-2-10 0-23-3-31C134-8 116 4 84 4 32 4 16-41 15-95c0-56 19-97 73-99zm17 164c33 0 40-30 41-66 1-37-9-64-41-64s-38 30-39 65c0 43 13 65 39 65" id="aK"/><path fill="#333" d="M165-50V0h-47v-50H5v-38l105-160h55v161h33v37h-33zm-47-37l2-116L46-87h72" id="aL"/><path fill="#333" d="M102-93c0 74-22 123-52 168H0C30 29 54-18 53-93c0-74-22-123-53-168h50c30 45 52 94 52 168" id="aM"/><g id="g"><use transform="matrix(0.06172839506172839,0,0,0.06172839506172839,0,0)" xlink:href="#aJ"/><use transform="matrix(0.06172839506172839,0,0,0.06172839506172839,7.345679012345679,0)" xlink:href="#aK"/><use transform="matrix(0.06172839506172839,0,0,0.06172839506172839,20.864197530864196,0)" xlink:href="#aI"/><use transform="matrix(0.06172839506172839,0,0,0.06172839506172839,33.20987654320987,0)" xlink:href="#aq"/><use transform="matrix(0.06172839506172839,0,0,0.06172839506172839,52.96296296296296,0)" xlink:href="#aL"/><use transform="matrix(0.06172839506172839,0,0,0.06172839506172839,65.30864197530865,0)" xlink:href="#aI"/><use transform="matrix(0.06172839506172839,0,0,0.06172839506172839,77.65432098765433,0)" xlink:href="#ap"/><use transform="matrix(0.06172839506172839,0,0,0.06172839506172839,91.17283950617285,0)" xlink:href="#av"/><use transform="matrix(0.06172839506172839,0,0,0.06172839506172839,103.51851851851853,0)" xlink:href="#av"/><use transform="matrix(0.06172839506172839,0,0,0.06172839506172839,115.86419753086422,0)" xlink:href="#aM"/></g><path fill="#333" d="M182 0l-62-99L58 0H3l86-130-79-118h55l55 88 55-88h55l-75 118L237 0h-55" id="aN"/><path fill="#333" d="M14-72v-43h91v43H14" id="aO"/><path fill="#333" d="M123 10C108 53 80 86 19 72V37c35 8 53-11 59-39L3-190h52l48 148c12-52 28-100 44-148h51" id="aP"/><g id="h"><use transform="matrix(0.06172839506172839,0,0,0.06172839506172839,0,0)" xlink:href="#aN"/><use transform="matrix(0.06172839506172839,0,0,0.06172839506172839,14.814814814814813,0)" xlink:href="#aO"/><use transform="matrix(0.06172839506172839,0,0,0.06172839506172839,22.160493827160494,0)" xlink:href="#ax"/><use transform="matrix(0.06172839506172839,0,0,0.06172839506172839,38.148148148148145,0)" xlink:href="#ao"/><use transform="matrix(0.06172839506172839,0,0,0.06172839506172839,50.49382716049382,0)" xlink:href="#aP"/></g><path fill="#333" d="M25 0v-261h50V0H25" id="aQ"/><g id="i"><use transform="matrix(0.06172839506172839,0,0,0.06172839506172839,0,0)" xlink:href="#aw"/><use transform="matrix(0.06172839506172839,0,0,0.06172839506172839,18.456790123456788,0)" xlink:href="#aG"/><use transform="matrix(0.06172839506172839,0,0,0.06172839506172839,31.9753086419753,0)" xlink:href="#aK"/><use transform="matrix(0.06172839506172839,0,0,0.06172839506172839,45.49382716049382,0)" xlink:href="#ao"/><use transform="matrix(0.06172839506172839,0,0,0.06172839506172839,57.8395061728395,0)" xlink:href="#aQ"/><use transform="matrix(0.06172839506172839,0,0,0.06172839506172839,64.01234567901234,0)" xlink:href="#as"/><use transform="matrix(0.06172839506172839,0,0,0.06172839506172839,70.18518518518518,0)" xlink:href="#aD"/><use transform="matrix(0.06172839506172839,0,0,0.06172839506172839,77.53086419753086,0)" xlink:href="#aP"/></g><path fill="#333" d="M137-138c1-29-70-34-71-4 15 46 118 7 119 86 1 83-164 76-172 9l43-7c4 19 20 25 44 25 33 8 57-30 24-41C81-84 22-81 20-136c-2-80 154-74 161-7" id="aR"/><g id="j"><use transform="matrix(0.06172839506172839,0,0,0.06172839506172839,0,0)" xlink:href="#aJ"/><use transform="matrix(0.06172839506172839,0,0,0.06172839506172839,7.345679012345679,0)" xlink:href="#aB"/><use transform="matrix(0.06172839506172839,0,0,0.06172839506172839,23.333333333333332,0)" xlink:href="#ao"/><use transform="matrix(0.06172839506172839,0,0,0.06172839506172839,35.67901234567901,0)" xlink:href="#aF"/><use transform="matrix(0.06172839506172839,0,0,0.06172839506172839,44.32098765432099,0)" xlink:href="#av"/><use transform="matrix(0.06172839506172839,0,0,0.06172839506172839,56.666666666666664,0)" xlink:href="#aR"/><use transform="matrix(0.06172839506172839,0,0,0.06172839506172839,69.01234567901234,0)" xlink:href="#aD"/><use transform="matrix(0.06172839506172839,0,0,0.06172839506172839,76.35802469135803,0)" xlink:href="#aF"/><use transform="matrix(0.06172839506172839,0,0,0.06172839506172839,85,0)" xlink:href="#av"/><use transform="matrix(0.06172839506172839,0,0,0.06172839506172839,97.34567901234568,0)" xlink:href="#ao"/><use transform="matrix(0.06172839506172839,0,0,0.06172839506172839,109.69135802469137,0)" xlink:href="#aq"/><use transform="matrix(0.06172839506172839,0,0,0.06172839506172839,129.44444444444446,0)" xlink:href="#aM"/></g><path fill="#333" d="M30-248c118-7 216 8 213 122C240-48 200 0 122 0H30v-248zM63-27c89 8 146-16 146-99s-60-101-146-95v194" id="aS"/><path fill="#333" d="M100-194c62-1 85 37 85 99 1 63-27 99-86 99S16-35 15-95c0-66 28-99 85-99zM99-20c44 1 53-31 53-75 0-43-8-75-51-75s-53 32-53 75 10 74 51 75" id="aT"/><path fill="#333" d="M96-169c-40 0-48 33-48 73s9 75 48 75c24 0 41-14 43-38l32 2c-6 37-31 61-74 61-59 0-76-41-82-99-10-93 101-131 147-64 4 7 5 14 7 22l-32 3c-4-21-16-35-41-35" id="aU"/><path fill="#333" d="M59-47c-2 24 18 29 38 22v24C64 9 27 4 27-40v-127H5v-23h24l9-43h21v43h35v23H59v120" id="aV"/><path fill="#333" d="M114-163C36-179 61-72 57 0H25l-1-190h30c1 12-1 29 2 39 6-27 23-49 58-41v29" id="aW"/><path fill="#333" d="M33-154v-36h34v36H33zM33 0v-36h34V0H33" id="aX"/><g id="k"><use transform="matrix(0.055555555555555546,0,0,0.055555555555555546,0,0)" xlink:href="#aS"/><use transform="matrix(0.055555555555555546,0,0,0.055555555555555546,14.388888888888886,0)" xlink:href="#aT"/><use transform="matrix(0.055555555555555546,0,0,0.055555555555555546,25.499999999999993,0)" xlink:href="#aU"/><use transform="matrix(0.055555555555555546,0,0,0.055555555555555546,35.49999999999999,0)" xlink:href="#aV"/><use transform="matrix(0.055555555555555546,0,0,0.055555555555555546,41.05555555555555,0)" xlink:href="#aT"/><use transform="matrix(0.055555555555555546,0,0,0.055555555555555546,52.16666666666666,0)" xlink:href="#aW"/><use transform="matrix(0.055555555555555546,0,0,0.055555555555555546,58.777777777777764,0)" xlink:href="#aX"/></g><path fill="#333" d="M121-226c-27-7-43 5-38 36h38v33H83V0H34v-157H6v-33h28c-9-59 32-81 87-68v32" id="aY"/><g id="l"><use transform="matrix(0.04938271604938272,0,0,0.04938271604938272,0,0)" xlink:href="#ao"/><use transform="matrix(0.04938271604938272,0,0,0.04938271604938272,9.876543209876544,0)" xlink:href="#aD"/><use transform="matrix(0.04938271604938272,0,0,0.04938271604938272,15.753086419753087,0)" xlink:href="#aG"/><use transform="matrix(0.04938271604938272,0,0,0.04938271604938272,26.567901234567902,0)" xlink:href="#aq"/><use transform="matrix(0.04938271604938272,0,0,0.04938271604938272,42.370370370370374,0)" xlink:href="#aY"/><use transform="matrix(0.04938271604938272,0,0,0.04938271604938272,48.24691358024692,0)" xlink:href="#av"/><use transform="matrix(0.04938271604938272,0,0,0.04938271604938272,58.12345679012346,0)" xlink:href="#av"/><use transform="matrix(0.04938271604938272,0,0,0.04938271604938272,68,0)" xlink:href="#aK"/></g><path fill="#333" d="M84 4C32 4 15-41 15-95c0-55 18-99 73-99 29 0 47 12 58 34l2-30h48l-1 265h-49V-32C136-9 114 4 84 4zm21-34c32 0 41-29 41-66 0-36-9-64-40-64-33 0-39 30-40 65 0 43 13 65 39 65" id="aZ"/><path fill="#333" d="M85 4C-2 5 27-109 22-190h50c7 57-23 150 33 157 60-5 35-97 40-157h50l1 190h-47c-2-12 1-28-3-38-12 25-28 42-61 42" id="ba"/><g id="m"><use transform="matrix(0.04938271604938272,0,0,0.04938271604938272,0,0)" xlink:href="#aZ"/><use transform="matrix(0.04938271604938272,0,0,0.04938271604938272,10.814814814814815,0)" xlink:href="#ba"/><use transform="matrix(0.04938271604938272,0,0,0.04938271604938272,21.62962962962963,0)" xlink:href="#av"/><use transform="matrix(0.04938271604938272,0,0,0.04938271604938272,31.506172839506174,0)" xlink:href="#aF"/><use transform="matrix(0.04938271604938272,0,0,0.04938271604938272,38.41975308641975,0)" xlink:href="#aP"/></g><path fill="#333" d="M62-168c30 0 50 19 50 48S92-70 62-70c-29 0-48-21-48-50s20-48 48-48" id="bb"/><use transform="matrix(0.055555555555555546,0,0,0.055555555555555546,0,0)" xlink:href="#bb" id="n"/><path fill="#333" d="M117-194c89-4 53 116 60 194h-32v-121c0-31-8-49-39-48C34-167 62-67 57 0H25l-1-190h30c1 10-1 24 2 32 11-22 29-35 61-36" id="bc"/><path fill="#333" d="M100-194c63 0 86 42 84 106H49c0 40 14 67 53 68 26 1 43-12 49-29l28 8c-11 28-37 45-77 45C44 4 14-33 15-96c1-61 26-98 85-98zm52 81c6-60-76-77-97-28-3 7-6 17-6 28h103" id="bd"/><path fill="#333" d="M206 0h-36l-40-164L89 0H53L-1-190h32L70-26l43-164h34l41 164 42-164h31" id="be"/><g id="o"><use transform="matrix(0.055555555555555546,0,0,0.055555555555555546,0,0)" xlink:href="#bc"/><use transform="matrix(0.055555555555555546,0,0,0.055555555555555546,11.111111111111109,0)" xlink:href="#bd"/><use transform="matrix(0.055555555555555546,0,0,0.055555555555555546,22.222222222222218,0)" xlink:href="#be"/></g><path fill="#333" d="M141 0L90-78 38 0H4l68-98-65-92h35l48 74 47-74h35l-64 92 68 98h-35" id="bf"/><path fill="#333" d="M16-82v-28h88v28H16" id="bg"/><path fill="#333" d="M141-36C126-15 110 5 73 4 37 3 15-17 15-53c-1-64 63-63 125-63 3-35-9-54-41-54-24 1-41 7-42 31l-33-3c5-37 33-52 76-52 45 0 72 20 72 64v82c-1 20 7 32 28 27v20c-31 9-61-2-59-35zM48-53c0 20 12 33 32 33 41-3 63-29 60-74-43 2-92-5-92 41" id="bh"/><path fill="#333" d="M179-190L93 31C79 59 56 82 12 73V49c39 6 53-20 64-50L1-190h34L92-34l54-156h33" id="bi"/><g id="p"><use transform="matrix(0.055555555555555546,0,0,0.055555555555555546,0,0)" xlink:href="#bf"/><use transform="matrix(0.055555555555555546,0,0,0.055555555555555546,9.999999999999998,0)" xlink:href="#bg"/><use transform="matrix(0.055555555555555546,0,0,0.055555555555555546,16.611111111111107,0)" xlink:href="#aW"/><use transform="matrix(0.055555555555555546,0,0,0.055555555555555546,23.222222222222218,0)" xlink:href="#bh"/><use transform="matrix(0.055555555555555546,0,0,0.055555555555555546,34.33333333333333,0)" xlink:href="#bi"/></g><path fill="#333" d="M85-194c31 0 48 13 60 33l-1-100h32l1 261h-30c-2-10 0-23-3-31C134-8 116 4 85 4 32 4 16-35 15-94c0-66 23-100 70-100zm9 24c-40 0-46 34-46 75 0 40 6 74 45 74 42 0 51-32 51-76 0-42-9-74-50-73" id="bj"/><g id="q"><use transform="matrix(0.055555555555555546,0,0,0.055555555555555546,0,0)" xlink:href="#aT"/><use transform="matrix(0.055555555555555546,0,0,0.055555555555555546,11.111111111111109,0)" xlink:href="#aW"/><use transform="matrix(0.055555555555555546,0,0,0.055555555555555546,17.722222222222218,0)" xlink:href="#bj"/><use transform="matrix(0.055555555555555546,0,0,0.055555555555555546,28.83333333333333,0)" xlink:href="#bd"/><use transform="matrix(0.055555555555555546,0,0,0.055555555555555546,39.944444444444436,0)" xlink:href="#aW"/></g><path fill="#333" d="M177-190C167-65 218 103 67 71c-23-6-38-20-44-43l32-5c15 47 100 32 89-28v-30C133-14 115 1 83 1 29 1 15-40 15-95c0-56 16-97 71-98 29-1 48 16 59 35 1-10 0-23 2-32h30zM94-22c36 0 50-32 50-73 0-42-14-75-50-75-39 0-46 34-46 75s6 73 46 73" id="bk"/><g id="r"><use transform="matrix(0.055555555555555546,0,0,0.055555555555555546,0,0)" xlink:href="#bk"/><use transform="matrix(0.055555555555555546,0,0,0.055555555555555546,11.111111111111109,0)" xlink:href="#bd"/><use transform="matrix(0.055555555555555546,0,0,0.055555555555555546,22.222222222222218,0)" xlink:href="#aV"/></g><path fill="#333" d="M115-194c55 1 70 41 70 98S169 2 115 4C84 4 66-9 55-30l1 105H24l-1-265h31l2 30c10-21 28-34 59-34zm-8 174c40 0 45-34 45-75s-6-73-45-74c-42 0-51 32-51 76 0 43 10 73 51 73" id="bl"/><path fill="#333" d="M135-143c-3-34-86-38-87 0 15 53 115 12 119 90S17 21 10-45l28-5c4 36 97 45 98 0-10-56-113-15-118-90-4-57 82-63 122-42 12 7 21 19 24 35" id="bm"/><g id="s"><use transform="matrix(0.055555555555555546,0,0,0.055555555555555546,0,0)" xlink:href="#bl"/><use transform="matrix(0.055555555555555546,0,0,0.055555555555555546,11.111111111111109,0)" xlink:href="#bh"/><use transform="matrix(0.055555555555555546,0,0,0.055555555555555546,22.222222222222218,0)" xlink:href="#aU"/><use transform="matrix(0.055555555555555546,0,0,0.055555555555555546,32.222222222222214,0)" xlink:href="#bm"/></g><path fill="#333" d="M24-231v-30h32v30H24zM24 0v-190h32V0H24" id="bn"/><path fill="#333" d="M210-169c-67 3-38 105-44 169h-31v-121c0-29-5-50-35-48C34-165 62-65 56 0H25l-1-190h30c1 10-1 24 2 32 10-44 99-50 107 0 11-21 27-35 58-36 85-2 47 119 55 194h-31v-121c0-29-5-49-35-48" id="bo"/><g id="t"><use transform="matrix(0.055555555555555546,0,0,0.055555555555555546,0,0)" xlink:href="#bn"/><use transform="matrix(0.055555555555555546,0,0,0.055555555555555546,4.388888888888888,0)" xlink:href="#bo"/><use transform="matrix(0.055555555555555546,0,0,0.055555555555555546,20.999999999999996,0)" xlink:href="#bh"/><use transform="matrix(0.055555555555555546,0,0,0.055555555555555546,32.11111111111111,0)" xlink:href="#bk"/><use transform="matrix(0.055555555555555546,0,0,0.055555555555555546,43.222222222222214,0)" xlink:href="#bd"/><use transform="matrix(0.055555555555555546,0,0,0.055555555555555546,54.33333333333332,0)" xlink:href="#bm"/></g><path fill="#333" d="M101-234c-31-9-42 10-38 44h38v23H63V0H32v-167H5v-23h27c-7-52 17-82 69-68v24" id="bp"/><g id="u"><use transform="matrix(0.055555555555555546,0,0,0.055555555555555546,0,0)" xlink:href="#bp"/><use transform="matrix(0.055555555555555546,0,0,0.055555555555555546,5.5555555555555545,0)" xlink:href="#aT"/><use transform="matrix(0.055555555555555546,0,0,0.055555555555555546,16.666666666666664,0)" xlink:href="#aW"/></g><g id="v"><use transform="matrix(0.055555555555555546,0,0,0.055555555555555546,0,0)" xlink:href="#bl"/><use transform="matrix(0.055555555555555546,0,0,0.055555555555555546,11.111111111111109,0)" xlink:href="#bh"/><use transform="matrix(0.055555555555555546,0,0,0.055555555555555546,22.222222222222218,0)" xlink:href="#aV"/><use transform="matrix(0.055555555555555546,0,0,0.055555555555555546,27.77777777777777,0)" xlink:href="#bn"/><use transform="matrix(0.055555555555555546,0,0,0.055555555555555546,32.16666666666666,0)" xlink:href="#bd"/><use transform="matrix(0.055555555555555546,0,0,0.055555555555555546,43.277777777777764,0)" xlink:href="#bc"/><use transform="matrix(0.055555555555555546,0,0,0.055555555555555546,54.38888888888887,0)" xlink:href="#aV"/></g><g id="w"><use transform="matrix(0.055555555555555546,0,0,0.055555555555555546,0,0)" xlink:href="#bc"/><use transform="matrix(0.055555555555555546,0,0,0.055555555555555546,11.111111111111109,0)" xlink:href="#aT"/><use transform="matrix(0.055555555555555546,0,0,0.055555555555555546,22.222222222222218,0)" xlink:href="#aV"/><use transform="matrix(0.055555555555555546,0,0,0.055555555555555546,27.77777777777777,0)" xlink:href="#bd"/><use transform="matrix(0.055555555555555546,0,0,0.055555555555555546,38.88888888888888,0)" xlink:href="#bm"/></g><g id="x"><use transform="matrix(0.055555555555555546,0,0,0.055555555555555546,0,0)" xlink:href="#bp"/><use transform="matrix(0.055555555555555546,0,0,0.055555555555555546,5.5555555555555545,0)" xlink:href="#aT"/><use transform="matrix(0.055555555555555546,0,0,0.055555555555555546,16.666666666666664,0)" xlink:href="#aW"/></g><g id="y"><use transform="matrix(0.055555555555555546,0,0,0.055555555555555546,0,0)" xlink:href="#bn"/><use transform="matrix(0.055555555555555546,0,0,0.055555555555555546,4.388888888888888,0)" xlink:href="#bo"/><use transform="matrix(0.055555555555555546,0,0,0.055555555555555546,20.999999999999996,0)" xlink:href="#bh"/><use transform="matrix(0.055555555555555546,0,0,0.055555555555555546,32.11111111111111,0)" xlink:href="#bk"/><use transform="matrix(0.055555555555555546,0,0,0.055555555555555546,43.222222222222214,0)" xlink:href="#bd"/><use transform="matrix(0.055555555555555546,0,0,0.055555555555555546,54.33333333333332,0)" xlink:href="#bm"/></g><path fill="#333" d="M240 0l2-218c-23 76-54 145-80 218h-23L58-218 59 0H30v-248h44l77 211c21-75 51-140 76-211h43V0h-30" id="bq"/><path fill="#333" d="M266 0h-40l-56-210L115 0H75L2-248h35L96-30l15-64 43-154h32l59 218 59-218h35" id="br"/><path fill="#333" d="M30 0v-248h33v221h125V0H30" id="bs"/><g id="z"><use transform="matrix(0.06172839506172839,0,0,0.06172839506172839,0,0)" xlink:href="#bq"/><use transform="matrix(0.06172839506172839,0,0,0.06172839506172839,18.456790123456788,0)" xlink:href="#br"/><use transform="matrix(0.06172839506172839,0,0,0.06172839506172839,39.38271604938271,0)" xlink:href="#bs"/></g><path fill="#333" d="M145-31C134-9 116 4 85 4 32 4 16-35 15-94c0-59 17-99 70-100 32-1 48 14 60 33 0-11-1-24 2-32h30l-1 268h-32zM93-21c41 0 51-33 51-76s-8-73-50-73c-40 0-46 35-46 75s5 74 45 74" id="bt"/><path fill="#333" d="M84 4C-5 8 30-112 23-190h32v120c0 31 7 50 39 49 72-2 45-101 50-169h31l1 190h-30c-1-10 1-25-2-33-11 22-28 36-60 37" id="bu"/><g id="A"><use transform="matrix(0.055555555555555546,0,0,0.055555555555555546,0,0)" xlink:href="#bt"/><use transform="matrix(0.055555555555555546,0,0,0.055555555555555546,11.111111111111109,0)" xlink:href="#bu"/><use transform="matrix(0.055555555555555546,0,0,0.055555555555555546,22.222222222222218,0)" xlink:href="#bd"/><use transform="matrix(0.055555555555555546,0,0,0.055555555555555546,33.33333333333333,0)" xlink:href="#aW"/><use transform="matrix(0.055555555555555546,0,0,0.055555555555555546,39.944444444444436,0)" xlink:href="#bi"/></g><g id="B"><use transform="matrix(0.055555555555555546,0,0,0.055555555555555546,0,0)" xlink:href="#bc"/><use transform="matrix(0.055555555555555546,0,0,0.055555555555555546,11.111111111111109,0)" xlink:href="#bd"/><use transform="matrix(0.055555555555555546,0,0,0.055555555555555546,22.222222222222218,0)" xlink:href="#be"/></g><g id="C"><use transform="matrix(0.055555555555555546,0,0,0.055555555555555546,0,0)" xlink:href="#aT"/><use transform="matrix(0.055555555555555546,0,0,0.055555555555555546,11.111111111111109,0)" xlink:href="#aW"/><use transform="matrix(0.055555555555555546,0,0,0.055555555555555546,17.722222222222218,0)" xlink:href="#bj"/><use transform="matrix(0.055555555555555546,0,0,0.055555555555555546,28.83333333333333,0)" xlink:href="#bd"/><use transform="matrix(0.055555555555555546,0,0,0.055555555555555546,39.944444444444436,0)" xlink:href="#aW"/><use transform="matrix(0.055555555555555546,0,0,0.055555555555555546,46.55555555555554,0)" xlink:href="#bm"/></g><g id="D"><use transform="matrix(0.055555555555555546,0,0,0.055555555555555546,0,0)" xlink:href="#bm"/><use transform="matrix(0.055555555555555546,0,0,0.055555555555555546,9.999999999999998,0)" xlink:href="#bd"/><use transform="matrix(0.055555555555555546,0,0,0.055555555555555546,21.111111111111107,0)" xlink:href="#bc"/><use transform="matrix(0.055555555555555546,0,0,0.055555555555555546,32.222222222222214,0)" xlink:href="#bj"/></g><g id="E"><use transform="matrix(0.055555555555555546,0,0,0.055555555555555546,0,0)" xlink:href="#aT"/><use transform="matrix(0.055555555555555546,0,0,0.055555555555555546,11.111111111111109,0)" xlink:href="#aW"/><use transform="matrix(0.055555555555555546,0,0,0.055555555555555546,17.722222222222218,0)" xlink:href="#bj"/><use transform="matrix(0.055555555555555546,0,0,0.055555555555555546,28.83333333333333,0)" xlink:href="#bd"/><use transform="matrix(0.055555555555555546,0,0,0.055555555555555546,39.944444444444436,0)" xlink:href="#aW"/></g><g id="F"><use transform="matrix(0.055555555555555546,0,0,0.055555555555555546,0,0)" xlink:href="#aV"/><use transform="matrix(0.055555555555555546,0,0,0.055555555555555546,5.5555555555555545,0)" xlink:href="#aT"/></g><g id="G"><use transform="matrix(0.055555555555555546,0,0,0.055555555555555546,0,0)" xlink:href="#bl"/><use transform="matrix(0.055555555555555546,0,0,0.055555555555555546,11.111111111111109,0)" xlink:href="#bh"/><use transform="matrix(0.055555555555555546,0,0,0.055555555555555546,22.222222222222218,0)" xlink:href="#aU"/><use transform="matrix(0.055555555555555546,0,0,0.055555555555555546,32.222222222222214,0)" xlink:href="#bm"/></g><path fill="#333" d="M186 0v-106H76V0H24v-248h52v99h110v-99h50V0h-50" id="bv"/><path fill="#333" d="M24 0v-248h52v208h133V0H24" id="bw"/><path fill="#333" d="M52 0c1-96 47-148 87-207H15v-41h169v40c-36 62-79 113-81 208H52" id="bx"/><g id="H"><use transform="matrix(0.04938271604938272,0,0,0.04938271604938272,0,0)" xlink:href="#bv"/><use transform="matrix(0.04938271604938272,0,0,0.04938271604938272,12.790123456790125,0)" xlink:href="#bw"/><use transform="matrix(0.04938271604938272,0,0,0.04938271604938272,23.60493827160494,0)" xlink:href="#bx"/></g><g id="I"><use transform="matrix(0.04938271604938272,0,0,0.04938271604938272,0,0)" xlink:href="#at"/><use transform="matrix(0.04938271604938272,0,0,0.04938271604938272,13.827160493827162,0)" xlink:href="#aF"/><use transform="matrix(0.04938271604938272,0,0,0.04938271604938272,20.74074074074074,0)" xlink:href="#aK"/><use transform="matrix(0.04938271604938272,0,0,0.04938271604938272,31.555555555555557,0)" xlink:href="#av"/><use transform="matrix(0.04938271604938272,0,0,0.04938271604938272,41.4320987654321,0)" xlink:href="#aF"/></g><path fill="#333" d="M233-177c-1 41-23 64-60 70L243 0h-38l-65-103H63V0H30v-248c88 3 205-21 203 71zM63-129c60-2 137 13 137-47 0-61-80-42-137-45v92" id="by"/><path fill="#333" d="M24 0v-261h32V0H24" id="bz"/><g id="J"><use transform="matrix(0.055555555555555546,0,0,0.055555555555555546,0,0)" xlink:href="#by"/><use transform="matrix(0.055555555555555546,0,0,0.055555555555555546,14.388888888888886,0)" xlink:href="#bh"/><use transform="matrix(0.055555555555555546,0,0,0.055555555555555546,25.499999999999993,0)" xlink:href="#bj"/><use transform="matrix(0.055555555555555546,0,0,0.055555555555555546,36.6111111111111,0)" xlink:href="#bn"/><use transform="matrix(0.055555555555555546,0,0,0.055555555555555546,40.999999999999986,0)" xlink:href="#aT"/><use transform="matrix(0.055555555555555546,0,0,0.055555555555555546,52.11111111111109,0)" xlink:href="#bz"/><use transform="matrix(0.055555555555555546,0,0,0.055555555555555546,56.49999999999998,0)" xlink:href="#aT"/><use transform="matrix(0.055555555555555546,0,0,0.055555555555555546,67.61111111111109,0)" xlink:href="#bk"/><use transform="matrix(0.055555555555555546,0,0,0.055555555555555546,78.7222222222222,0)" xlink:href="#bn"/><use transform="matrix(0.055555555555555546,0,0,0.055555555555555546,83.11111111111109,0)" xlink:href="#bm"/><use transform="matrix(0.055555555555555546,0,0,0.055555555555555546,93.11111111111109,0)" xlink:href="#aV"/><use transform="matrix(0.055555555555555546,0,0,0.055555555555555546,98.66666666666664,0)" xlink:href="#aX"/></g><g id="K"><use transform="matrix(0.055555555555555546,0,0,0.055555555555555546,0,0)" xlink:href="#bj"/><use transform="matrix(0.055555555555555546,0,0,0.055555555555555546,11.111111111111109,0)" xlink:href="#bh"/><use transform="matrix(0.055555555555555546,0,0,0.055555555555555546,22.222222222222218,0)" xlink:href="#aV"/><use transform="matrix(0.055555555555555546,0,0,0.055555555555555546,27.77777777777777,0)" xlink:href="#bd"/></g><g id="L"><use transform="matrix(0.055555555555555546,0,0,0.055555555555555546,0,0)" xlink:href="#bn"/><use transform="matrix(0.055555555555555546,0,0,0.055555555555555546,4.388888888888888,0)" xlink:href="#bo"/><use transform="matrix(0.055555555555555546,0,0,0.055555555555555546,20.999999999999996,0)" xlink:href="#bh"/><use transform="matrix(0.055555555555555546,0,0,0.055555555555555546,32.11111111111111,0)" xlink:href="#bk"/><use transform="matrix(0.055555555555555546,0,0,0.055555555555555546,43.222222222222214,0)" xlink:href="#bd"/><use transform="matrix(0.055555555555555546,0,0,0.055555555555555546,54.33333333333332,0)" xlink:href="#bm"/></g><g id="M"><use transform="matrix(0.055555555555555546,0,0,0.055555555555555546,0,0)" xlink:href="#bh"/><use transform="matrix(0.055555555555555546,0,0,0.055555555555555546,11.111111111111109,0)" xlink:href="#bj"/><use transform="matrix(0.055555555555555546,0,0,0.055555555555555546,22.222222222222218,0)" xlink:href="#bj"/></g><g id="N"><use transform="matrix(0.055555555555555546,0,0,0.055555555555555546,0,0)" xlink:href="#bc"/><use transform="matrix(0.055555555555555546,0,0,0.055555555555555546,11.111111111111109,0)" xlink:href="#aT"/><use transform="matrix(0.055555555555555546,0,0,0.055555555555555546,22.222222222222218,0)" xlink:href="#aV"/><use transform="matrix(0.055555555555555546,0,0,0.055555555555555546,27.77777777777777,0)" xlink:href="#bd"/></g><g id="O"><use transform="matrix(0.055555555555555546,0,0,0.055555555555555546,0,0)" xlink:href="#aV"/><use transform="matrix(0.055555555555555546,0,0,0.055555555555555546,5.5555555555555545,0)" xlink:href="#aT"/></g><g id="P"><use transform="matrix(0.055555555555555546,0,0,0.055555555555555546,0,0)" xlink:href="#bn"/><use transform="matrix(0.055555555555555546,0,0,0.055555555555555546,4.388888888888888,0)" xlink:href="#bo"/><use transform="matrix(0.055555555555555546,0,0,0.055555555555555546,20.999999999999996,0)" xlink:href="#bh"/><use transform="matrix(0.055555555555555546,0,0,0.055555555555555546,32.11111111111111,0)" xlink:href="#bk"/><use transform="matrix(0.055555555555555546,0,0,0.055555555555555546,43.222222222222214,0)" xlink:href="#bd"/></g><g id="Q"><use transform="matrix(0.06172839506172839,0,0,0.06172839506172839,0,0)" xlink:href="#aS"/><use transform="matrix(0.06172839506172839,0,0,0.06172839506172839,15.987654320987653,0)" xlink:href="#bn"/><use transform="matrix(0.06172839506172839,0,0,0.06172839506172839,20.864197530864196,0)" xlink:href="#aU"/><use transform="matrix(0.06172839506172839,0,0,0.06172839506172839,31.975308641975307,0)" xlink:href="#aT"/><use transform="matrix(0.06172839506172839,0,0,0.06172839506172839,44.32098765432099,0)" xlink:href="#bo"/></g><path fill="#333" d="M185-189c-5-48-123-54-124 2 14 75 158 14 163 119 3 78-121 87-175 55-17-10-28-26-33-46l33-7c5 56 141 63 141-1 0-78-155-14-162-118-5-82 145-84 179-34 5 7 8 16 11 25" id="bA"/><g id="R"><use transform="matrix(0.06172839506172839,0,0,0.06172839506172839,0,0)" xlink:href="#bA"/><use transform="matrix(0.06172839506172839,0,0,0.06172839506172839,14.814814814814813,0)" xlink:href="#aV"/><use transform="matrix(0.06172839506172839,0,0,0.06172839506172839,20.98765432098765,0)" xlink:href="#aT"/><use transform="matrix(0.06172839506172839,0,0,0.06172839506172839,33.33333333333333,0)" xlink:href="#aW"/><use transform="matrix(0.06172839506172839,0,0,0.06172839506172839,40.679012345679006,0)" xlink:href="#bd"/></g><g id="S"><use transform="matrix(0.055555555555555546,0,0,0.055555555555555546,0,0)" xlink:href="#bz"/><use transform="matrix(0.055555555555555546,0,0,0.055555555555555546,4.388888888888888,0)" xlink:href="#bn"/><use transform="matrix(0.055555555555555546,0,0,0.055555555555555546,8.777777777777777,0)" xlink:href="#bm"/><use transform="matrix(0.055555555555555546,0,0,0.055555555555555546,18.777777777777775,0)" xlink:href="#aV"/></g><g id="T"><use transform="matrix(0.055555555555555546,0,0,0.055555555555555546,0,0)" xlink:href="#bq"/><use transform="matrix(0.055555555555555546,0,0,0.055555555555555546,16.611111111111107,0)" xlink:href="#br"/><use transform="matrix(0.055555555555555546,0,0,0.055555555555555546,35.444444444444436,0)" xlink:href="#bs"/></g><g id="U"><use transform="matrix(0.055555555555555546,0,0,0.055555555555555546,0,0)" xlink:href="#bn"/><use transform="matrix(0.055555555555555546,0,0,0.055555555555555546,4.388888888888888,0)" xlink:href="#aV"/><use transform="matrix(0.055555555555555546,0,0,0.055555555555555546,9.944444444444443,0)" xlink:href="#bd"/><use transform="matrix(0.055555555555555546,0,0,0.055555555555555546,21.05555555555555,0)" xlink:href="#bo"/><use transform="matrix(0.055555555555555546,0,0,0.055555555555555546,37.66666666666666,0)" xlink:href="#bm"/></g><path fill="#333" d="M24-248c120-7 223 5 221 122C244-46 201 0 124 0H24v-248zM76-40c74 7 117-18 117-86 0-67-45-88-117-82v168" id="bB"/><g id="V"><use transform="matrix(0.04938271604938272,0,0,0.04938271604938272,0,0)" xlink:href="#bB"/><use transform="matrix(0.04938271604938272,0,0,0.04938271604938272,12.790123456790125,0)" xlink:href="#aC"/><use transform="matrix(0.04938271604938272,0,0,0.04938271604938272,17.7283950617284,0)" xlink:href="#aB"/><use transform="matrix(0.04938271604938272,0,0,0.04938271604938272,30.518518518518526,0)" xlink:href="#at"/><use transform="matrix(0.04938271604938272,0,0,0.04938271604938272,44.345679012345684,0)" xlink:href="#aw"/></g><g id="W"><use transform="matrix(0.04938271604938272,0,0,0.04938271604938272,0,0)" xlink:href="#aN"/><use transform="matrix(0.04938271604938272,0,0,0.04938271604938272,11.851851851851853,0)" xlink:href="#aO"/><use transform="matrix(0.04938271604938272,0,0,0.04938271604938272,17.728395061728396,0)" xlink:href="#ax"/><use transform="matrix(0.04938271604938272,0,0,0.04938271604938272,30.518518518518523,0)" xlink:href="#ao"/><use transform="matrix(0.04938271604938272,0,0,0.04938271604938272,40.39506172839506,0)" xlink:href="#aP"/></g><g id="X"><use transform="matrix(0.04938271604938272,0,0,0.04938271604938272,0,0)" xlink:href="#az"/><use transform="matrix(0.04938271604938272,0,0,0.04938271604938272,11.851851851851853,0)" xlink:href="#aG"/><use transform="matrix(0.04938271604938272,0,0,0.04938271604938272,22.666666666666668,0)" xlink:href="#aQ"/><use transform="matrix(0.04938271604938272,0,0,0.04938271604938272,27.60493827160494,0)" xlink:href="#aQ"/></g><path fill="#333" d="M275 0h-61l-44-196L126 0H64L0-248h53L97-49l45-199h58l43 199 44-199h52" id="bC"/><g id="Y"><use transform="matrix(0.04938271604938272,0,0,0.04938271604938272,0,0)" xlink:href="#aw"/><use transform="matrix(0.04938271604938272,0,0,0.04938271604938272,14.765432098765434,0)" xlink:href="#bC"/><use transform="matrix(0.04938271604938272,0,0,0.04938271604938272,31.506172839506174,0)" xlink:href="#bw"/></g><g id="Z"><use transform="matrix(0.04938271604938272,0,0,0.04938271604938272,0,0)" xlink:href="#aC"/><use transform="matrix(0.04938271604938272,0,0,0.04938271604938272,4.938271604938272,0)" xlink:href="#aD"/><use transform="matrix(0.04938271604938272,0,0,0.04938271604938272,10.814814814814817,0)" xlink:href="#av"/><use transform="matrix(0.04938271604938272,0,0,0.04938271604938272,20.69135802469136,0)" xlink:href="#aq"/><use transform="matrix(0.04938271604938272,0,0,0.04938271604938272,36.49382716049383,0)" xlink:href="#aR"/></g><path fill="#333" d="M143 0L79-87 56-68V0H24v-261h32v163l83-92h37l-77 82L181 0h-38" id="bD"/><g id="aa"><use transform="matrix(0.055555555555555546,0,0,0.055555555555555546,0,0)" xlink:href="#aV"/><use transform="matrix(0.055555555555555546,0,0,0.055555555555555546,5.5555555555555545,0)" xlink:href="#bh"/><use transform="matrix(0.055555555555555546,0,0,0.055555555555555546,16.666666666666664,0)" xlink:href="#bD"/><use transform="matrix(0.055555555555555546,0,0,0.055555555555555546,26.666666666666664,0)" xlink:href="#bd"/></g><path fill="#333" d="M195 0l-74-108L45 0H8l94-129-87-119h37l69 98 67-98h37l-84 118L233 0h-38" id="bE"/><g id="ab"><use transform="matrix(0.055555555555555546,0,0,0.055555555555555546,0,0)" xlink:href="#bE"/><use transform="matrix(0.055555555555555546,0,0,0.055555555555555546,13.33333333333333,0)" xlink:href="#bg"/><use transform="matrix(0.055555555555555546,0,0,0.055555555555555546,19.94444444444444,0)" xlink:href="#by"/><use transform="matrix(0.055555555555555546,0,0,0.055555555555555546,34.33333333333333,0)" xlink:href="#bh"/><use transform="matrix(0.055555555555555546,0,0,0.055555555555555546,45.444444444444436,0)" xlink:href="#bi"/></g><path fill="#333" d="M140-251c80 0 125 45 125 126 0 70-33 111-92 124 6 28 34 38 68 31l-1 36C177 83 129 55 120 2 51-6 15-50 15-125c0-81 44-126 125-126zm-1 214c52 0 73-35 73-88 0-50-21-86-72-86-52 0-73 35-73 86s22 88 72 88" id="bF"/><g id="ac"><use transform="matrix(0.04938271604938272,0,0,0.04938271604938272,0,0)" xlink:href="#bF"/><use transform="matrix(0.04938271604938272,0,0,0.04938271604938272,13.827160493827162,0)" xlink:href="#ba"/><use transform="matrix(0.04938271604938272,0,0,0.04938271604938272,24.641975308641975,0)" xlink:href="#av"/><use transform="matrix(0.04938271604938272,0,0,0.04938271604938272,34.51851851851852,0)" xlink:href="#aF"/><use transform="matrix(0.04938271604938272,0,0,0.04938271604938272,41.4320987654321,0)" xlink:href="#aP"/></g><path fill="#333" d="M24 0v-248h195v40H76v63h132v40H76v65h150V0H24" id="bG"/><g id="ad"><use transform="matrix(0.04938271604938272,0,0,0.04938271604938272,0,0)" xlink:href="#bG"/><use transform="matrix(0.04938271604938272,0,0,0.04938271604938272,11.851851851851853,0)" xlink:href="#aq"/><use transform="matrix(0.04938271604938272,0,0,0.04938271604938272,27.654320987654323,0)" xlink:href="#ba"/><use transform="matrix(0.04938271604938272,0,0,0.04938271604938272,38.46913580246914,0)" xlink:href="#aQ"/><use transform="matrix(0.04938271604938272,0,0,0.04938271604938272,43.40740740740741,0)" xlink:href="#ao"/><use transform="matrix(0.04938271604938272,0,0,0.04938271604938272,53.283950617283956,0)" xlink:href="#aD"/><use transform="matrix(0.04938271604938272,0,0,0.04938271604938272,59.1604938271605,0)" xlink:href="#av"/><use transform="matrix(0.04938271604938272,0,0,0.04938271604938272,69.03703703703704,0)" xlink:href="#aK"/></g><g id="ae"><use transform="matrix(0.04938271604938272,0,0,0.04938271604938272,0,0)" xlink:href="#aw"/><use transform="matrix(0.04938271604938272,0,0,0.04938271604938272,14.765432098765434,0)" xlink:href="#az"/><use transform="matrix(0.04938271604938272,0,0,0.04938271604938272,26.617283950617285,0)" xlink:href="#az"/><use transform="matrix(0.04938271604938272,0,0,0.04938271604938272,38.46913580246914,0)" xlink:href="#ay"/></g><path fill="#333" d="M27 0v-27h64v-190l-56 39v-29l58-41h29v221h61V0H27" id="bH"/><use transform="matrix(0.06172839506172839,0,0,0.06172839506172839,0,0)" xlink:href="#bH" id="af"/><path fill="#333" d="M101-251c82-7 93 87 43 132L82-64C71-53 59-42 53-27h129V0H18c2-99 128-94 128-182 0-28-16-43-45-43s-46 15-49 41l-32-3c6-41 34-60 81-64" id="bI"/><use transform="matrix(0.06172839506172839,0,0,0.06172839506172839,0,0)" xlink:href="#bI" id="ag"/><path fill="#333" d="M126-127c33 6 58 20 58 59 0 88-139 92-164 29-3-8-5-16-6-25l32-3c6 27 21 44 54 44 32 0 52-15 52-46 0-38-36-46-79-43v-28c39 1 72-4 72-42 0-27-17-43-46-43-28 0-47 15-49 41l-32-3c6-42 35-63 81-64 48-1 79 21 79 65 0 36-21 52-52 59" id="bJ"/><use transform="matrix(0.06172839506172839,0,0,0.06172839506172839,0,0)" xlink:href="#bJ" id="ah"/><path fill="#333" d="M155-56V0h-30v-56H8v-25l114-167h33v167h35v25h-35zm-30-156c-27 46-58 90-88 131h88v-131" id="bK"/><use transform="matrix(0.06172839506172839,0,0,0.06172839506172839,0,0)" xlink:href="#bK" id="ai"/><path fill="#333" d="M54-142c48-35 137-8 131 61C196 18 31 33 14-55l32-4c7 23 22 37 52 37 35-1 51-22 54-58 4-55-73-65-99-34H22l8-134h141v27H59" id="bL"/><use transform="matrix(0.06172839506172839,0,0,0.06172839506172839,0,0)" xlink:href="#bL" id="aj"/><path fill="#333" d="M110-160c48 1 74 30 74 79 0 53-28 85-80 85-65 0-83-55-86-122-5-90 50-162 133-122 14 7 22 21 27 39l-31 6c-5-40-67-38-82-6-9 19-15 44-15 74 11-20 30-34 60-33zm-7 138c34 0 49-23 49-58s-16-56-50-56c-29 0-50 16-49 49 1 36 15 65 50 65" id="bM"/><use transform="matrix(0.06172839506172839,0,0,0.06172839506172839,0,0)" xlink:href="#bM" id="ak"/><path fill="#333" d="M64 0c3-98 48-159 88-221H18v-27h164v26C143-157 98-101 97 0H64" id="bN"/><use transform="matrix(0.06172839506172839,0,0,0.06172839506172839,0,0)" xlink:href="#bN" id="al"/><path fill="#333" d="M134-131c28 9 52 24 51 62-1 50-34 73-85 73S17-19 16-69c0-36 21-54 49-61-75-25-45-126 34-121 46 3 78 18 79 63 0 33-17 51-44 57zm-34-11c31 1 46-15 46-44 0-28-17-43-47-42-29 0-46 13-45 42 1 28 16 44 46 44zm1 122c35 0 51-18 51-52 0-30-18-46-53-46-33 0-51 17-51 47 0 34 19 51 53 51" id="bO"/><use transform="matrix(0.06172839506172839,0,0,0.06172839506172839,0,0)" xlink:href="#bO" id="am"/></defs></g></svg>